<?xml version='1.0' encoding='utf-8'?>
<svg xmlns="http://www.w3.org/2000/svg" style="display:none">
<symbol  viewBox="0 0 24 24"><path d="M9 8h2V6c0-.55.45-1 1-1h1V3h-2a3 3 0 00-3 3v2H6v3h2v7h3v-7h2l1-3H9z" /></symbol>
<!-- ICONOS PARA DESARROLLO -->

<!-- REDES SOCIALES -->
<!-- Facebook -->
<symbol id="icon-facebook" viewBox="0 0 640 640"><!--!Font Awesome Free v7.1.0 by @fontawesome - https://fontawesome.com License - https://fontawesome.com/license/free Copyright 2025 Fonticons, Inc.--><path d="M576 320C576 178.6 461.4 64 320 64C178.6 64 64 178.6 64 320C64 440 146.7 540.8 258.2 568.5L258.2 398.2L205.4 398.2L205.4 320L258.2 320L258.2 286.3C258.2 199.2 297.6 158.8 383.2 158.8C399.4 158.8 427.4 162 438.9 165.2L438.9 236C432.9 235.4 422.4 235 409.3 235C367.3 235 351.1 250.9 351.1 292.2L351.1 320L434.7 320L420.3 398.2L351 398.2L351 574.1C477.8 558.8 576 450.9 576 320z"/></symbol>
<symbol id="icon-facebook-square" viewBox="0 0 640 640"><!--!Font Awesome Free v7.1.0 by @fontawesome - https://fontawesome.com License - https://fontawesome.com/license/free Copyright 2025 Fonticons, Inc.--><path d="M160 96C124.7 96 96 124.7 96 160L96 480C96 515.3 124.7 544 160 544L258.2 544L258.2 398.2L205.4 398.2L205.4 320L258.2 320L258.2 286.3C258.2 199.2 297.6 158.8 383.2 158.8C399.4 158.8 427.4 162 438.9 165.2L438.9 236C432.9 235.4 422.4 235 409.3 235C367.3 235 351.1 250.9 351.1 292.2L351.1 320L434.7 320L420.3 398.2L351 398.2L351 544L480 544C515.3 544 544 515.3 544 480L544 160C544 124.7 515.3 96 480 96L160 96z"/></symbol>
<!-- Instagram-->
<symbol id="icon-instagram" viewBox="0 0 640 640"><!--!Font Awesome Free v7.1.0 by @fontawesome - https://fontawesome.com License - https://fontawesome.com/license/free Copyright 2025 Fonticons, Inc.--><path d="M320.3 205C256.8 204.8 205.2 256.2 205 319.7C204.8 383.2 256.2 434.8 319.7 435C383.2 435.2 434.8 383.8 435 320.3C435.2 256.8 383.8 205.2 320.3 205zM319.7 245.4C360.9 245.2 394.4 278.5 394.6 319.7C394.8 360.9 361.5 394.4 320.3 394.6C279.1 394.8 245.6 361.5 245.4 320.3C245.2 279.1 278.5 245.6 319.7 245.4zM413.1 200.3C413.1 185.5 425.1 173.5 439.9 173.5C454.7 173.5 466.7 185.5 466.7 200.3C466.7 215.1 454.7 227.1 439.9 227.1C425.1 227.1 413.1 215.1 413.1 200.3zM542.8 227.5C541.1 191.6 532.9 159.8 506.6 133.6C480.4 107.4 448.6 99.2 412.7 97.4C375.7 95.3 264.8 95.3 227.8 97.4C192 99.1 160.2 107.3 133.9 133.5C107.6 159.7 99.5 191.5 97.7 227.4C95.6 264.4 95.6 375.3 97.7 412.3C99.4 448.2 107.6 480 133.9 506.2C160.2 532.4 191.9 540.6 227.8 542.4C264.8 544.5 375.7 544.5 412.7 542.4C448.6 540.7 480.4 532.5 506.6 506.2C532.8 480 541 448.2 542.8 412.3C544.9 375.3 544.9 264.5 542.8 227.5zM495 452C487.2 471.6 472.1 486.7 452.4 494.6C422.9 506.3 352.9 503.6 320.3 503.6C287.7 503.6 217.6 506.2 188.2 494.6C168.6 486.8 153.5 471.7 145.6 452C133.9 422.5 136.6 352.5 136.6 319.9C136.6 287.3 134 217.2 145.6 187.8C153.4 168.2 168.5 153.1 188.2 145.2C217.7 133.5 287.7 136.2 320.3 136.2C352.9 136.2 423 133.6 452.4 145.2C472 153 487.1 168.1 495 187.8C506.7 217.3 504 287.3 504 319.9C504 352.5 506.7 422.6 495 452z"/></symbol>
<symbol id="icon-instagram-square" viewBox="0 0 640 640"><!--!Font Awesome Free v7.1.0 by @fontawesome - https://fontawesome.com License - https://fontawesome.com/license/free Copyright 2025 Fonticons, Inc.--><path d="M290.4 275.7C274 286 264.5 304.5 265.5 323.8C266.6 343.2 278.2 360.4 295.6 368.9C313.1 377.3 333.8 375.5 349.6 364.3C366 354 375.5 335.5 374.5 316.2C373.4 296.8 361.8 279.6 344.4 271.1C326.9 262.7 306.2 264.5 290.4 275.7zM432.7 207.3C427.5 202.1 421.2 198 414.3 195.3C396.2 188.2 356.7 188.5 331.2 188.8C327.1 188.8 323.3 188.9 320 188.9C316.7 188.9 312.8 188.9 308.6 188.8C283.1 188.5 243.8 188.1 225.7 195.3C218.8 198 212.6 202.1 207.3 207.3C202 212.5 198 218.8 195.3 225.7C188.2 243.8 188.6 283.4 188.8 308.9C188.8 313 188.9 316.8 188.9 320C188.9 323.2 188.9 327 188.8 331.1C188.6 356.6 188.2 396.2 195.3 414.3C198 421.2 202.1 427.4 207.3 432.7C212.5 438 218.8 442 225.7 444.7C243.8 451.8 283.3 451.5 308.8 451.2C312.9 451.2 316.7 451.1 320 451.1C323.3 451.1 327.2 451.1 331.4 451.2C356.9 451.5 396.2 451.9 414.3 444.7C421.2 442 427.4 437.9 432.7 432.7C438 427.5 442 421.2 444.7 414.3C451.9 396.3 451.5 356.9 451.2 331.3C451.2 327.1 451.1 323.2 451.1 319.9C451.1 316.6 451.1 312.8 451.2 308.5C451.5 283 451.9 243.6 444.7 225.5C442 218.6 437.9 212.4 432.7 207.1L432.7 207.3zM365.6 251.8C383.7 263.9 396.2 282.7 400.5 304C404.8 325.3 400.3 347.5 388.2 365.6C382.2 374.6 374.5 382.2 365.6 388.2C356.7 394.2 346.6 398.3 336 400.4C314.7 404.6 292.5 400.2 274.4 388.1C256.3 376 243.8 357.2 239.5 335.9C235.2 314.6 239.7 292.4 251.7 274.3C263.7 256.2 282.6 243.7 303.9 239.4C325.2 235.1 347.4 239.6 365.5 251.6L365.6 251.6zM394.8 250.5C391.7 248.4 389.2 245.4 387.7 241.9C386.2 238.4 385.9 234.6 386.6 230.8C387.3 227 389.2 223.7 391.8 221C394.4 218.3 397.9 216.5 401.6 215.8C405.3 215.1 409.2 215.4 412.7 216.9C416.2 218.4 419.2 220.8 421.3 223.9C423.4 227 424.5 230.7 424.5 234.5C424.5 237 424 239.5 423.1 241.8C422.2 244.1 420.7 246.2 419 248C417.3 249.8 415.1 251.2 412.8 252.2C410.5 253.2 408 253.7 405.5 253.7C401.7 253.7 398 252.6 394.9 250.5L394.8 250.5zM544 160C544 124.7 515.3 96 480 96L160 96C124.7 96 96 124.7 96 160L96 480C96 515.3 124.7 544 160 544L480 544C515.3 544 544 515.3 544 480L544 160zM453 453C434.3 471.7 411.6 477.6 386 478.9C359.6 480.4 280.4 480.4 254 478.9C228.4 477.6 205.7 471.7 187 453C168.3 434.3 162.4 411.6 161.2 386C159.7 359.6 159.7 280.4 161.2 254C162.5 228.4 168.3 205.7 187 187C205.7 168.3 228.5 162.4 254 161.2C280.4 159.7 359.6 159.7 386 161.2C411.6 162.5 434.3 168.3 453 187C471.7 205.7 477.6 228.4 478.8 254C480.3 280.3 480.3 359.4 478.8 385.9C477.5 411.5 471.7 434.2 453 452.9L453 453z"/></symbol>
<!-- Twitter-->
<symbol id="icon-twitter" viewBox="0 0 640 640"><!--!Font Awesome Free v7.1.0 by @fontawesome - https://fontawesome.com License - https://fontawesome.com/license/free Copyright 2025 Fonticons, Inc.--><path d="M523.4 215.7C523.7 220.2 523.7 224.8 523.7 229.3C523.7 368 418.1 527.9 225.1 527.9C165.6 527.9 110.4 510.7 64 480.8C72.4 481.8 80.6 482.1 89.3 482.1C138.4 482.1 183.5 465.5 219.6 437.3C173.5 436.3 134.8 406.1 121.5 364.5C128 365.5 134.5 366.1 141.3 366.1C150.7 366.1 160.1 364.8 168.9 362.5C120.8 352.8 84.8 310.5 84.8 259.5L84.8 258.2C98.8 266 115 270.9 132.2 271.5C103.9 252.7 85.4 220.5 85.4 184.1C85.4 164.6 90.6 146.7 99.7 131.1C151.4 194.8 229 236.4 316.1 240.9C314.5 233.1 313.5 225 313.5 216.9C313.5 159.1 360.3 112 418.4 112C448.6 112 475.9 124.7 495.1 145.1C518.8 140.6 541.6 131.8 561.7 119.8C553.9 144.2 537.3 164.6 515.6 177.6C536.7 175.3 557.2 169.5 576 161.4C561.7 182.2 543.8 200.7 523.4 215.7z"/></symbol>
<symbol id="icon-twitter-square" viewBox="0 0 640 640"><!--!Font Awesome Free v7.1.0 by @fontawesome - https://fontawesome.com License - https://fontawesome.com/license/free Copyright 2025 Fonticons, Inc.--><path d="M160 96C124.7 96 96 124.7 96 160L96 480C96 515.3 124.7 544 160 544L480 544C515.3 544 544 515.3 544 480L544 160C544 124.7 515.3 96 480 96L160 96zM447.3 263.3C447.3 350 381.3 449.9 260.7 449.9C223.5 449.9 189 439.1 160 420.5C165.3 421.1 170.4 421.3 175.8 421.3C206.5 421.3 234.7 410.9 257.2 393.3C228.4 392.7 204.2 373.8 195.9 347.8C206 349.3 215.1 349.3 225.5 346.6C195.5 340.5 173 314.1 173 282.2L173 281.4C181.7 286.3 191.9 289.3 202.6 289.7C193.6 283.7 186.2 275.6 181.1 266.1C176 256.6 173.3 245.9 173.4 235.1C173.4 222.9 176.6 211.7 182.3 202C214.6 241.8 263.1 267.8 317.5 270.6C308.2 226.1 341.5 190 381.5 190C400.4 190 417.4 197.9 429.4 210.7C444.2 207.9 458.4 202.4 471 194.9C466.1 210.1 455.8 222.9 442.2 231C455.4 229.6 468.2 225.9 480 220.8C471.1 233.9 459.9 245.5 447.1 254.8C447.3 257.6 447.3 260.5 447.3 263.3z"/></symbol>
<!-- X -->
<symbol id="icon-x-twitter" viewBox="0 0 640 640"><!--!Font Awesome Free v7.1.0 by @fontawesome - https://fontawesome.com License - https://fontawesome.com/license/free Copyright 2025 Fonticons, Inc.--><path d="M453.2 112L523.8 112L369.6 288.2L551 528L409 528L297.7 382.6L170.5 528L99.8 528L264.7 339.5L90.8 112L236.4 112L336.9 244.9L453.2 112zM428.4 485.8L467.5 485.8L215.1 152L173.1 152L428.4 485.8z"/></symbol>
<symbol id="icon-x-twitter-square" viewBox="0 0 640 640"><!--!Font Awesome Free v7.1.0 by @fontawesome - https://fontawesome.com License - https://fontawesome.com/license/free Copyright 2025 Fonticons, Inc.--><path d="M160 96C124.7 96 96 124.7 96 160L96 480C96 515.3 124.7 544 160 544L480 544C515.3 544 544 515.3 544 480L544 160C544 124.7 515.3 96 480 96L160 96zM457.1 180L353.3 298.6L475.4 460L379.8 460L305 362.1L219.3 460L171.8 460L282.8 333.1L165.7 180L263.7 180L331.4 269.5L409.6 180L457.1 180zM419.3 431.6L249.4 206.9L221.1 206.9L392.9 431.6L419.3 431.6z"/></symbol>
<!-- Behance -->
<symbol id="icon-behance" viewBox="0 0 640 640"><!--!Font Awesome Free v7.1.0 by @fontawesome - https://fontawesome.com License - https://fontawesome.com/license/free Copyright 2025 Fonticons, Inc.--><path d="M264 301.2C295.8 286 312.4 263 312.4 227.2C312.4 156.6 259.8 139.4 199.1 139.4L32 139.4L32 493.8L203.8 493.8C268.2 493.8 328.7 462.9 328.7 390.9C328.7 346.4 307.6 313.5 264 301.2zM109.9 199.9L183 199.9C211.1 199.9 236.4 207.8 236.4 240.4C236.4 270.5 216.7 282.6 188.9 282.6L109.9 282.6L109.9 199.9zM193.2 433.6L109.9 433.6L109.9 336L194.8 336C229.1 336 250.8 350.3 250.8 386.6C250.8 422.4 224.9 433.6 193.2 433.6zM551.7 192.9L408 192.9L408 158L551.7 158L551.7 192.9zM608 369.2C608 293.3 563.6 230 483.1 230C404.9 230 351.8 288.8 351.8 365.8C351.8 445.7 402.1 500.5 483.1 500.5C544.4 500.5 584.1 472.9 603.2 414.2L541 414.2C534.3 436.1 506.7 447.7 485.3 447.7C444 447.7 422.3 423.5 422.3 382.4L607.4 382.4C607.7 378.2 608 373.7 608 369.2zM422.4 338C424.7 304.3 447.1 283.2 480.9 283.2C516.3 283.2 534.1 304 537.1 338L422.4 338z"/></symbol>
<symbol id="icon-behance-square" viewBox="0 0 640 640"><!--!Font Awesome Free v7.1.0 by @fontawesome - https://fontawesome.com License - https://fontawesome.com/license/free Copyright 2025 Fonticons, Inc.--><path d="M251.3 382.4C268.5 382.4 282.5 376.3 282.5 357C282.5 337.3 270.8 329.6 252.2 329.5L206.2 329.5L206.2 382.4L251.3 382.4zM245.9 252.8L206.3 252.8L206.3 297.6L249 297.6C264.1 297.6 274.8 291 274.8 274.7C274.8 257 261.1 252.8 245.9 252.8zM375.4 327.6L437.6 327.6C435.9 309.1 426.3 297.9 407.1 297.9C388.8 297.9 376.6 309.3 375.4 327.6zM480 96L160 96C124.7 96 96 124.7 96 160L96 480C96 515.3 124.7 544 160 544L480 544C515.3 544 544 515.3 544 480L544 160C544 124.7 515.3 96 480 96zM445.5 249L367.7 249L367.7 230.1L445.5 230.1L445.5 249zM289.7 307.7C313.3 314.4 324.7 335.2 324.7 359.3C324.7 398.3 292 415 257.1 415.2L164 415.2L164 223.2L254.5 223.2C287.4 223.2 315.9 232.5 315.9 270.7C315.9 290 306.9 299.5 289.7 307.7zM408.4 269.1C451.9 269.1 476 303.4 476 344.5C476 346.1 475.9 347.8 475.8 349.5C475.8 350.3 475.7 351 475.7 351.7L375.5 351.7C375.5 373.9 387.2 387 409.6 387C421.2 387 436.1 380.8 439.8 368.9L473.5 368.9C463.1 400.8 441.6 415.7 408.4 415.7C364.6 415.7 337.3 386 337.3 342.7C337.3 300.9 366 269.1 408.4 269.1z"/></symbol>
<!-- Whats App-->
<symbol id="icon-whatsapp" viewBox="0 0 640 640"><!--!Font Awesome Free v7.1.0 by @fontawesome - https://fontawesome.com License - https://fontawesome.com/license/free Copyright 2025 Fonticons, Inc.--><path d="M476.9 161.1C435 119.1 379.2 96 319.9 96C197.5 96 97.9 195.6 97.9 318C97.9 357.1 108.1 395.3 127.5 429L96 544L213.7 513.1C246.1 530.8 282.6 540.1 319.8 540.1L319.9 540.1C442.2 540.1 544 440.5 544 318.1C544 258.8 518.8 203.1 476.9 161.1zM319.9 502.7C286.7 502.7 254.2 493.8 225.9 477L219.2 473L149.4 491.3L168 423.2L163.6 416.2C145.1 386.8 135.4 352.9 135.4 318C135.4 216.3 218.2 133.5 320 133.5C369.3 133.5 415.6 152.7 450.4 187.6C485.2 222.5 506.6 268.8 506.5 318.1C506.5 419.9 421.6 502.7 319.9 502.7zM421.1 364.5C415.6 361.7 388.3 348.3 383.2 346.5C378.1 344.6 374.4 343.7 370.7 349.3C367 354.9 356.4 367.3 353.1 371.1C349.9 374.8 346.6 375.3 341.1 372.5C308.5 356.2 287.1 343.4 265.6 306.5C259.9 296.7 271.3 297.4 281.9 276.2C283.7 272.5 282.8 269.3 281.4 266.5C280 263.7 268.9 236.4 264.3 225.3C259.8 214.5 255.2 216 251.8 215.8C248.6 215.6 244.9 215.6 241.2 215.6C237.5 215.6 231.5 217 226.4 222.5C221.3 228.1 207 241.5 207 268.8C207 296.1 226.9 322.5 229.6 326.2C232.4 329.9 268.7 385.9 324.4 410C359.6 425.2 373.4 426.5 391 423.9C401.7 422.3 423.8 410.5 428.4 397.5C433 384.5 433 373.4 431.6 371.1C430.3 368.6 426.6 367.2 421.1 364.5z"/></symbol>
<symbol id="icon-whatsapp-square" viewBox="0 0 640 640"><!--!Font Awesome Free v7.1.0 by @fontawesome - https://fontawesome.com License - https://fontawesome.com/license/free Copyright 2025 Fonticons, Inc.--><path d="M188.1 318.6C188.1 343.5 195.1 367.8 208.3 388.7L211.4 393.7L198.1 442.3L248 429.2L252.8 432.1C273 444.1 296.2 450.5 319.9 450.5L320 450.5C392.6 450.5 453.3 391.4 453.3 318.7C453.3 283.5 438.1 250.4 413.2 225.5C388.2 200.5 355.2 186.8 320 186.8C247.3 186.8 188.2 245.9 188.1 318.6zM370.8 394C358.2 395.9 348.4 394.9 323.3 384.1C286.5 368.2 261.5 332.6 256.4 325.4C256 324.8 255.7 324.5 255.6 324.3C253.6 321.7 239.4 302.8 239.4 283.3C239.4 264.9 248.4 255.4 252.6 251C252.9 250.7 253.1 250.5 253.3 250.2C256.9 246.2 261.2 245.2 263.9 245.2C266.5 245.2 269.2 245.2 271.5 245.3L272.3 245.3C274.6 245.3 277.5 245.3 280.4 252.1C281.6 255 283.4 259.4 285.3 263.9C288.6 271.9 292 280.2 292.6 281.5C293.6 283.5 294.3 285.8 292.9 288.4C289.5 295.2 286 298.8 283.6 301.4C280.5 304.6 279.1 306.1 281.3 310C296.6 336.3 311.9 345.4 335.2 357.1C339.2 359.1 341.5 358.8 343.8 356.1C346.1 353.5 353.7 344.5 356.3 340.6C358.9 336.6 361.6 337.3 365.2 338.6C368.8 339.9 388.3 349.5 392.3 351.5C393.1 351.9 393.8 352.2 394.4 352.5C397.2 353.9 399.1 354.8 399.9 356.1C400.8 358 400.8 366 397.5 375.2C394.2 384.5 378.4 392.9 370.8 394zM544 160C544 124.7 515.3 96 480 96L160 96C124.7 96 96 124.7 96 160L96 480C96 515.3 124.7 544 160 544L480 544C515.3 544 544 515.3 544 480L544 160zM244.1 457.9L160 480L182.5 397.8C168.6 373.8 161.3 346.5 161.3 318.5C161.4 231.1 232.5 160 319.9 160C362.3 160 402.1 176.5 432.1 206.5C462 236.5 480 276.3 480 318.7C480 406.1 407.3 477.2 319.9 477.2C293.3 477.2 267.2 470.5 244.1 457.9z"/></symbol>
<!-- Mail-->
<symbol id="icon-mail-negro" viewBox="0 0 640 640"><!--!Font Awesome Free v7.1.0 by @fontawesome - https://fontawesome.com License - https://fontawesome.com/license/free Copyright 2025 Fonticons, Inc.--><path d="M112 128C85.5 128 64 149.5 64 176C64 191.1 71.1 205.3 83.2 214.4L291.2 370.4C308.3 383.2 331.7 383.2 348.8 370.4L556.8 214.4C568.9 205.3 576 191.1 576 176C576 149.5 554.5 128 528 128L112 128zM64 260L64 448C64 483.3 92.7 512 128 512L512 512C547.3 512 576 483.3 576 448L576 260L377.6 408.8C343.5 434.4 296.5 434.4 262.4 408.8L64 260z"/></symbol>
<symbol id="icon-mail-blanco" viewBox="0 0 640 640"><!--!Font Awesome Free v7.1.0 by @fontawesome - https://fontawesome.com License - https://fontawesome.com/license/free Copyright 2025 Fonticons, Inc.--><path d="M125.4 128C91.5 128 64 155.5 64 189.4C64 190.3 64 191.1 64.1 192L64 192L64 448C64 483.3 92.7 512 128 512L512 512C547.3 512 576 483.3 576 448L576 192L575.9 192C575.9 191.1 576 190.3 576 189.4C576 155.5 548.5 128 514.6 128L125.4 128zM528 256.3L528 448C528 456.8 520.8 464 512 464L128 464C119.2 464 112 456.8 112 448L112 256.3L266.8 373.7C298.2 397.6 341.7 397.6 373.2 373.7L528 256.3zM112 189.4C112 182 118 176 125.4 176L514.6 176C522 176 528 182 528 189.4C528 193.6 526 197.6 522.7 200.1L344.2 335.5C329.9 346.3 310.1 346.3 295.8 335.5L117.3 200.1C114 197.6 112 193.6 112 189.4z"/></symbol>
<!-- LinkedIn-->
<symbol id="icon-linkedin" viewBox="0 0 640 640"><!--!Font Awesome Free v7.1.0 by @fontawesome - https://fontawesome.com License - https://fontawesome.com/license/free Copyright 2025 Fonticons, Inc.--><path d="M512 96L127.9 96C110.3 96 96 110.5 96 128.3L96 511.7C96 529.5 110.3 544 127.9 544L512 544C529.6 544 544 529.5 544 511.7L544 128.3C544 110.5 529.6 96 512 96zM231.4 480L165 480L165 266.2L231.5 266.2L231.5 480L231.4 480zM198.2 160C219.5 160 236.7 177.2 236.7 198.5C236.7 219.8 219.5 237 198.2 237C176.9 237 159.7 219.8 159.7 198.5C159.7 177.2 176.9 160 198.2 160zM480.3 480L413.9 480L413.9 376C413.9 351.2 413.4 319.3 379.4 319.3C344.8 319.3 339.5 346.3 339.5 374.2L339.5 480L273.1 480L273.1 266.2L336.8 266.2L336.8 295.4L337.7 295.4C346.6 278.6 368.3 260.9 400.6 260.9C467.8 260.9 480.3 305.2 480.3 362.8L480.3 480z"/></symbol>
<symbol id="icon-linkedin-square" viewBox="0 0 640 640"><!--!Font Awesome Free v7.1.0 by @fontawesome - https://fontawesome.com License - https://fontawesome.com/license/free Copyright 2025 Fonticons, Inc.--><path d="M160 96C124.7 96 96 124.7 96 160L96 480C96 515.3 124.7 544 160 544L480 544C515.3 544 544 515.3 544 480L544 160C544 124.7 515.3 96 480 96L160 96zM165 266.2L231.5 266.2L231.5 480L165 480L165 266.2zM236.7 198.5C236.7 219.8 219.5 237 198.2 237C176.9 237 159.7 219.8 159.7 198.5C159.7 177.2 176.9 160 198.2 160C219.5 160 236.7 177.2 236.7 198.5zM413.9 480L413.9 376C413.9 351.2 413.4 319.3 379.4 319.3C344.8 319.3 339.5 346.3 339.5 374.2L339.5 480L273.1 480L273.1 266.2L336.8 266.2L336.8 295.4L337.7 295.4C346.6 278.6 368.3 260.9 400.6 260.9C467.8 260.9 480.3 305.2 480.3 362.8L480.3 480L413.9 480z"/></symbol>
<!-- Discord -->
<symbol id="icon-discord" viewBox="0 0 640 640"><!--!Font Awesome Free v7.1.0 by @fontawesome - https://fontawesome.com License - https://fontawesome.com/license/free Copyright 2025 Fonticons, Inc.--><path d="M524.5 133.8C524.3 133.5 524.1 133.2 523.7 133.1C485.6 115.6 445.3 103.1 404 96C403.6 95.9 403.2 96 402.9 96.1C402.6 96.2 402.3 96.5 402.1 96.9C396.6 106.8 391.6 117.1 387.2 127.5C342.6 120.7 297.3 120.7 252.8 127.5C248.3 117 243.3 106.8 237.7 96.9C237.5 96.6 237.2 96.3 236.9 96.1C236.6 95.9 236.2 95.9 235.8 95.9C194.5 103 154.2 115.5 116.1 133C115.8 133.1 115.5 133.4 115.3 133.7C39.1 247.5 18.2 358.6 28.4 468.2C28.4 468.5 28.5 468.7 28.6 469C28.7 469.3 28.9 469.4 29.1 469.6C73.5 502.5 123.1 527.6 175.9 543.8C176.3 543.9 176.7 543.9 177 543.8C177.3 543.7 177.7 543.4 177.9 543.1C189.2 527.7 199.3 511.3 207.9 494.3C208 494.1 208.1 493.8 208.1 493.5C208.1 493.2 208.1 493 208 492.7C207.9 492.4 207.8 492.2 207.6 492.1C207.4 492 207.2 491.8 206.9 491.7C191.1 485.6 175.7 478.3 161 469.8C160.7 469.6 160.5 469.4 160.3 469.2C160.1 469 160 468.6 160 468.3C160 468 160 467.7 160.2 467.4C160.4 467.1 160.5 466.9 160.8 466.7C163.9 464.4 167 462 169.9 459.6C170.2 459.4 170.5 459.2 170.8 459.2C171.1 459.2 171.5 459.2 171.8 459.3C268 503.2 372.2 503.2 467.3 459.3C467.6 459.2 468 459.1 468.3 459.1C468.6 459.1 469 459.3 469.2 459.5C472.1 461.9 475.2 464.4 478.3 466.7C478.5 466.9 478.7 467.1 478.9 467.4C479.1 467.7 479.1 468 479.1 468.3C479.1 468.6 479 468.9 478.8 469.2C478.6 469.5 478.4 469.7 478.2 469.8C463.5 478.4 448.2 485.7 432.3 491.6C432.1 491.7 431.8 491.8 431.6 492C431.4 492.2 431.3 492.4 431.2 492.7C431.1 493 431.1 493.2 431.1 493.5C431.1 493.8 431.2 494 431.3 494.3C440.1 511.3 450.1 527.6 461.3 543.1C461.5 543.4 461.9 543.7 462.2 543.8C462.5 543.9 463 543.9 463.3 543.8C516.2 527.6 565.9 502.5 610.4 469.6C610.6 469.4 610.8 469.2 610.9 469C611 468.8 611.1 468.5 611.1 468.2C623.4 341.4 590.6 231.3 524.2 133.7zM222.5 401.5C193.5 401.5 169.7 374.9 169.7 342.3C169.7 309.7 193.1 283.1 222.5 283.1C252.2 283.1 275.8 309.9 275.3 342.3C275.3 375 251.9 401.5 222.5 401.5zM417.9 401.5C388.9 401.5 365.1 374.9 365.1 342.3C365.1 309.7 388.5 283.1 417.9 283.1C447.6 283.1 471.2 309.9 470.7 342.3C470.7 375 447.5 401.5 417.9 401.5z"/></symbol>
<!-- YouTube -->
<symbol id="icon-youtube" viewBox="0 0 640 640"><!--!Font Awesome Free v7.1.0 by @fontawesome - https://fontawesome.com License - https://fontawesome.com/license/free Copyright 2025 Fonticons, Inc.--><path d="M581.7 188.1C575.5 164.4 556.9 145.8 533.4 139.5C490.9 128 320.1 128 320.1 128C320.1 128 149.3 128 106.7 139.5C83.2 145.8 64.7 164.4 58.4 188.1C47 231 47 320.4 47 320.4C47 320.4 47 409.8 58.4 452.7C64.7 476.3 83.2 494.2 106.7 500.5C149.3 512 320.1 512 320.1 512C320.1 512 490.9 512 533.5 500.5C557 494.2 575.5 476.3 581.8 452.7C593.2 409.8 593.2 320.4 593.2 320.4C593.2 320.4 593.2 231 581.8 188.1zM264.2 401.6L264.2 239.2L406.9 320.4L264.2 401.6z"/></symbol>
<symbol id="icon-youtube-square" viewBox="0 0 640 640"><!--!Font Awesome Free v7.1.0 by @fontawesome - https://fontawesome.com License - https://fontawesome.com/license/free Copyright 2025 Fonticons, Inc.--><path d="M378 320.2L282.8 266.1L282.8 374.3L378 320.2zM480 96L160 96C124.7 96 96 124.7 96 160L96 480C96 515.3 124.7 544 160 544L480 544C515.3 544 544 515.3 544 480L544 160C544 124.7 515.3 96 480 96zM494.4 232.1C502 260.7 502 320.3 502 320.3C502 320.3 502 379.9 494.4 408.4C490.2 424.2 477.9 436.1 462.2 440.3C433.9 448 320 448 320 448C320 448 206.1 448 177.8 440.4C162.1 436.2 149.8 424.3 145.6 408.5C138 379.9 138 320.3 138 320.3C138 320.3 138 260.6 145.6 232.1C149.8 216.3 162.1 203.9 177.8 199.7C206.1 192 320 192 320 192C320 192 433.9 192 462.2 199.7C477.9 203.9 490.2 216.3 494.4 232.1z"/></symbol>
<!-- Telegram -->
<symbol id="icon-telegram" viewBox="0 0 640 640"><!--!Font Awesome Free v7.1.0 by @fontawesome - https://fontawesome.com License - https://fontawesome.com/license/free Copyright 2025 Fonticons, Inc.--><path d="M320 72C183 72 72 183 72 320C72 457 183 568 320 568C457 568 568 457 568 320C568 183 457 72 320 72zM435 240.7C431.3 279.9 415.1 375.1 406.9 419C403.4 437.6 396.6 443.8 390 444.4C375.6 445.7 364.7 434.9 350.7 425.7C328.9 411.4 316.5 402.5 295.4 388.5C270.9 372.4 286.8 363.5 300.7 349C304.4 345.2 367.8 287.5 369 282.3C369.2 281.6 369.3 279.2 367.8 277.9C366.3 276.6 364.2 277.1 362.7 277.4C360.5 277.9 325.6 300.9 258.1 346.5C248.2 353.3 239.2 356.6 231.2 356.4C222.3 356.2 205.3 351.4 192.6 347.3C177.1 342.3 164.7 339.6 165.8 331C166.4 326.5 172.5 322 184.2 317.3C256.5 285.8 304.7 265 328.8 255C397.7 226.4 412 221.4 421.3 221.2C423.4 221.2 427.9 221.7 430.9 224.1C432.9 225.8 434.1 228.2 434.4 230.8C434.9 234 435 237.3 434.8 240.6z"/></symbol>
<!-- Tiktok -->
<symbol id="icon-tiktok" viewBox="0 0 640 640"><!--!Font Awesome Free v7.1.0 by @fontawesome - https://fontawesome.com License - https://fontawesome.com/license/free Copyright 2025 Fonticons, Inc.--><path d="M544.5 273.9C500.5 274 457.5 260.3 421.7 234.7L421.7 413.4C421.7 446.5 411.6 478.8 392.7 506C373.8 533.2 347.1 554 316.1 565.6C285.1 577.2 251.3 579.1 219.2 570.9C187.1 562.7 158.3 545 136.5 520.1C114.7 495.2 101.2 464.1 97.5 431.2C93.8 398.3 100.4 365.1 116.1 336C131.8 306.9 156.1 283.3 185.7 268.3C215.3 253.3 248.6 247.8 281.4 252.3L281.4 342.2C266.4 337.5 250.3 337.6 235.4 342.6C220.5 347.6 207.5 357.2 198.4 369.9C189.3 382.6 184.4 398 184.5 413.8C184.6 429.6 189.7 444.8 199 457.5C208.3 470.2 221.4 479.6 236.4 484.4C251.4 489.2 267.5 489.2 282.4 484.3C297.3 479.4 310.4 469.9 319.6 457.2C328.8 444.5 333.8 429.1 333.8 413.4L333.8 64L421.8 64C421.7 71.4 422.4 78.9 423.7 86.2C426.8 102.5 433.1 118.1 442.4 131.9C451.7 145.7 463.7 157.5 477.6 166.5C497.5 179.6 520.8 186.6 544.6 186.6L544.6 274z"/></symbol>
<!-- Meta -->
<symbol id="icon-meta" viewBox="0 0 640 640"><!--!Font Awesome Free v7.1.0 by @fontawesome - https://fontawesome.com License - https://fontawesome.com/license/free Copyright 2025 Fonticons, Inc.--><path d="M640 381.9C640 473.2 600.6 530.4 529.7 530.4C467.1 530.4 433.9 495.8 372.8 393.8L341.4 341.2C333.1 328.7 326.9 317 320.2 306.2C300.1 340 273.1 389.2 273.1 389.2C206.1 505.8 168.5 530.4 116.2 530.4C43.4 530.4 0 473.1 0 384.5C0 241.5 79.8 106.4 183.9 106.4C234.1 106.4 277.7 131.1 328.7 195.9C365.8 145.8 406.8 106.4 459.3 106.4C558.4 106.4 640 232.1 640 381.9zM287.4 256.2C244.5 194.1 216.5 175.7 183 175.7C121.1 175.7 69.2 281.8 69.2 385.7C69.2 434.2 87.7 461.4 118.8 461.4C149 461.4 167.8 442.4 222 357.6C222 357.6 246.7 318.5 287.4 256.2zM531.2 461.4C563.4 461.4 578.1 433.9 578.1 386.5C578.1 262.3 523.8 161.1 454.9 161.1C421.7 161.1 393.8 187 360 239.1C369.4 252.9 379.1 268.1 389.3 284.5L426.8 346.9C485.5 441 500.3 461.4 531.2 461.4z"/></symbol>
<!-- Facebook Messenger -->
<symbol id="icon-messenger" viewBox="0 0 640 640"><!--!Font Awesome Free v7.1.0 by @fontawesome - https://fontawesome.com License - https://fontawesome.com/license/free Copyright 2025 Fonticons, Inc.--><path d="M320.6 72C180.6 72 72 174.3 72 312.6C72 384.9 101.7 447.4 150.1 490.5C158.4 498 156.7 502.4 158.1 548.7C158.2 551.9 159.1 555.1 160.7 557.9C162.3 560.7 164.6 563.1 167.4 564.8C170.2 566.5 173.3 567.6 176.5 567.8C179.7 568 183 567.5 186 566.2C238.9 543 239.6 541.2 248.6 543.6C401.8 585.8 568 487.7 568 312.6C568 174.3 460.6 72 320.6 72zM469.8 257.1L396.8 372.7C394 377 390.4 380.8 386.2 383.7C382 386.6 377.1 388.5 372.1 389.5C367.1 390.5 361.8 390.3 356.8 389.1C351.8 387.9 347.1 385.7 343 382.7L284.9 339.2C282.3 337.3 279.1 336.2 275.9 336.2C272.7 336.2 269.5 337.3 266.9 339.2L188.5 398.6C178 406.5 164.3 394 171.4 382.9L244.4 267.3C247.2 263 250.8 259.2 255 256.3C259.2 253.4 264.1 251.5 269.1 250.5C274.1 249.5 279.4 249.7 284.4 250.9C289.4 252.1 294.1 254.3 298.3 257.3L356.4 300.8C359 302.7 362.2 303.8 365.4 303.8C368.6 303.8 371.8 302.7 374.4 300.8L452.8 241.4C463.2 233.4 476.9 245.9 469.9 257z"/></symbol>
24

<!-- LENGUAJES DE PROGRAMACION -->
<!-- HTML5-->
<symbol id="icon-html5" viewBox="0 0 640 640"><!--!Font Awesome Free v7.1.0 by @fontawesome - https://fontawesome.com License - https://fontawesome.com/license/free Copyright 2025 Fonticons, Inc.--><path d="M128 96L162.9 491.8L319.5 544L477.1 491.8L512 96L128 96zM436.2 223.9L252.4 223.9L256.5 273.3L432.1 273.3L418.5 421.7L320.6 448.7L320.6 449L319.5 449L220.8 421.7L214.8 345.9L262.5 345.9L266 384L319.5 398.5L373.2 384L379.2 321.8L212.3 321.8L199.5 176.2L440.6 176.2L436.2 223.9z"/></symbol>
<!-- CSS3-->
<symbol id="icon-css3" viewBox="0 0 640 640"><!--!Font Awesome Free v7.1.0 by @fontawesome - https://fontawesome.com License - https://fontawesome.com/license/free Copyright 2025 Fonticons, Inc.--><path d="M544 96L480 464L256.7 544L64 464L83.6 369.2L165.6 369.2L157.6 409.8L274 454.2L408.1 409.8L426.9 312.7L93.5 312.7L109.5 230.7L443.2 230.7L453.7 178L120.3 178L136.6 96L544 96z"/></symbol>
<symbol id="icon-css" viewBox="0 0 640 640"><!--!Font Awesome Free v7.1.0 by @fontawesome - https://fontawesome.com License - https://fontawesome.com/license/free Copyright 2025 Fonticons, Inc.--><path d="M128 96L162.9 491.8L320 544L477.1 491.8L512 96L128 96zM441.1 176L436.3 223.3L321 272.6L320.7 272.7L432.2 272.7L419.4 419.3L321.2 448L222.4 418.8L216 344.9L264.9 344.9L268.1 383.2L320.7 396.5L375.4 381.1L379.1 319.5L212.8 319L212.8 318.9L212.6 319L209 272.7L321.1 226L327.6 223.3L204.7 223.3L198.9 176L441.1 176z"/></symbol>
<!-- Java Script-->
<symbol id="icon-js" viewBox="0 0 640 640"><!--!Font Awesome Free v7.1.0 by @fontawesome - https://fontawesome.com License - https://fontawesome.com/license/free Copyright 2025 Fonticons, Inc.--><path d="M96 96L96 544L544 544L544 96L96 96zM339.8 445.4C339.8 489 314.2 508.9 276.9 508.9C243.2 508.9 223.7 491.5 213.7 470.4L248 449.7C254.6 461.4 260.6 471.3 275.1 471.3C288.9 471.3 297.7 465.9 297.7 444.8L297.7 301.7L339.8 301.7L339.8 445.4zM439.4 508.9C400.3 508.9 375 490.3 362.7 465.9L397 446.1C406 460.8 417.8 471.7 438.5 471.7C455.9 471.7 467.1 463 467.1 450.9C467.1 436.5 455.7 431.4 436.4 422.9L425.9 418.4C395.5 405.5 375.4 389.2 375.4 354.9C375.4 323.3 399.5 299.3 437 299.3C463.8 299.3 483 308.6 496.8 333L464 354C456.8 341.1 449 336 436.9 336C424.6 336 416.8 343.8 416.8 354C416.8 366.6 424.6 371.7 442.7 379.6L453.2 384.1C489 399.4 509.1 415.1 509.1 450.3C509.1 488.1 479.3 508.9 439.4 508.9z"/></symbol>
<symbol id="icon-js-square" viewBox="0 0 640 640"><!--!Font Awesome Free v7.1.0 by @fontawesome - https://fontawesome.com License - https://fontawesome.com/license/free Copyright 2025 Fonticons, Inc.--><path d="M544 160C544 124.7 515.3 96 480 96L160 96C124.7 96 96 124.7 96 160L96 480C96 515.3 124.7 544 160 544L480 544C515.3 544 544 515.3 544 480L544 160zM276.9 508.9C243.2 508.9 223.7 491.5 213.7 470.4L248 449.7C254.6 461.4 260.6 471.3 275.1 471.3C288.9 471.3 297.7 465.9 297.7 444.8L297.7 301.7L339.8 301.7L339.8 445.4C339.8 489 314.2 508.9 276.9 508.9zM362.7 465.9L397 446.1C406 460.8 417.8 471.7 438.5 471.7C455.9 471.7 467.1 463 467.1 450.9C467.1 436.5 455.7 431.4 436.4 422.9L425.9 418.4C395.5 405.5 375.4 389.2 375.4 354.9C375.4 323.3 399.5 299.3 437 299.3C463.8 299.3 483 308.6 496.8 333L464 354C456.8 341.1 449 336 436.9 336C424.6 336 416.8 343.8 416.8 354C416.8 366.6 424.6 371.7 442.7 379.6L453.2 384.1C489 399.4 509.1 415.1 509.1 450.3C509.1 488.1 479.3 508.9 439.4 508.9C400.3 508.9 375 490.3 362.7 465.9z"/></symbol>
<!-- React -->
<symbol id="icon-react" viewBox="0 0 640 640"><!--!Font Awesome Free v7.1.0 by @fontawesome - https://fontawesome.com License - https://fontawesome.com/license/free Copyright 2025 Fonticons, Inc.--><path d="M482.2 241.2C476.8 239.4 471.4 237.7 466 236.1C466.9 232.4 467.7 228.7 468.5 225C480.8 165.4 472.7 117.5 445.4 101.7C419.1 86.6 376.2 102.3 332.8 140.1C328.5 143.8 324.3 147.7 320.3 151.6C317.6 149 314.8 146.4 312 143.9C266.5 103.5 220.9 86.5 193.6 102.4C167.4 117.6 159.6 162.7 170.6 219.1C171.7 224.7 172.9 230.2 174.3 235.8C167.9 237.6 161.6 239.6 155.7 241.7C102.3 260.2 64 289.4 64 319.6C64 350.8 104.8 382.1 160.3 401.1C164.8 402.6 169.3 404.1 173.9 405.4C172.4 411.4 171.1 417.3 169.9 423.4C159.4 478.9 167.6 522.9 193.8 538C220.8 553.6 266.2 537.6 310.4 498.9C313.9 495.8 317.4 492.6 320.9 489.2C325.3 493.5 329.9 497.6 334.5 501.6C377.3 538.4 419.6 553.3 445.7 538.2C472.7 522.6 481.5 475.3 470.1 417.7C469.2 413.3 468.2 408.8 467.1 404.2C470.3 403.3 473.4 402.3 476.5 401.3C534.2 382.2 576 351.3 576 319.6C576 289.3 536.6 259.9 482.2 241.2zM346.9 156.3C384.1 123.9 418.8 111.2 434.6 120.3C451.5 130 458 169.2 447.4 220.7C446.7 224.1 446 227.4 445.1 230.7C422.9 225.7 400.4 222.1 377.8 220.1C364.8 201.5 350.6 183.7 335.2 167C339.1 163.3 342.9 159.8 346.9 156.3zM231.2 371.5C236.3 380.2 241.5 388.9 247 397.4C231.4 395.7 215.9 393.2 200.6 389.9C205 375.5 210.5 360.6 216.9 345.4C221.5 354.2 226.2 362.9 231.2 371.5zM200.9 251.2C215.3 248 230.6 245.4 246.5 243.4C241.2 251.7 236 260.2 231.1 268.8C226.2 277.3 221.4 286 216.9 294.8C210.6 279.9 205.3 265.3 200.9 251.2zM228.3 320.1C234.9 306.3 242.1 292.8 249.7 279.5C257.3 266.2 265.5 253.3 274.1 240.6C289.1 239.5 304.4 238.9 320 238.9C335.6 238.9 351 239.5 365.9 240.6C374.4 253.2 382.5 266.1 390.2 279.3C397.9 292.5 405.1 306 411.9 319.7C405.2 333.5 398 347.1 390.3 360.5C382.7 373.8 374.6 386.7 366.1 399.5C351.2 400.6 335.7 401.1 320 401.1C304.3 401.1 289.1 400.6 274.4 399.7C265.7 387 257.5 374 249.8 360.7C242.1 347.4 235 333.9 228.3 320.1zM408.9 371.3C414 362.5 418.8 353.6 423.5 344.6C429.9 359.1 435.5 373.8 440.4 388.9C424.9 392.4 409.2 395.1 393.4 396.9C398.8 388.5 403.9 379.9 408.9 371.3zM423.3 294.8C418.6 286 413.8 277.2 408.8 268.6C403.9 260.1 398.8 251.7 393.5 243.4C409.6 245.4 425 248.1 439.4 251.4C434.8 266.2 429.4 280.6 423.3 294.8zM320.2 182.3C330.7 193.7 340.6 205.7 349.8 218.1C330 217.2 310.1 217.2 290.3 218.1C300.1 205.2 310.2 193.2 320.2 182.3zM204.2 121C221 111.2 258.3 125.2 297.6 160C300.1 162.2 302.6 164.6 305.2 167C289.7 183.7 275.4 201.5 262.3 220.1C239.7 222.1 217.3 225.6 195.1 230.5C193.8 225.4 192.7 220.2 191.6 215C182.2 166.6 188.4 130.1 204.2 121zM179.7 384.6C175.5 383.4 171.4 382.1 167.3 380.7C146 374 121.8 363.4 104.3 349.5C94.2 342.5 87.4 331.7 85.5 319.6C85.5 301.3 117.1 277.9 162.7 262C168.4 260 174.2 258.2 180 256.5C186.8 278.2 195 299.5 204.5 320.1C194.9 341 186.6 362.6 179.7 384.6zM296.3 482.6C279.8 497.7 260.7 509.7 239.9 517.9C228.8 523.2 216 523.7 204.6 519.2C188.7 510 182.1 474.7 191.1 427.2C192.2 421.6 193.4 416 194.8 410.5C217.2 415.3 239.8 418.6 262.7 420.3C275.9 439 290.4 456.9 305.9 473.7C302.7 476.8 299.5 479.8 296.3 482.6zM320.8 458.3C310.6 447.3 300.4 435.1 290.5 422C300.1 422.4 310 422.6 320 422.6C330.3 422.6 340.4 422.4 350.4 421.9C341.2 434.6 331.3 446.7 320.8 458.3zM451.5 488.3C450.6 500.5 444.6 511.9 435 519.6C419.1 528.8 385.2 516.8 348.6 485.4C344.4 481.8 340.2 477.9 335.9 473.9C351.2 457 365.3 439.1 378.1 420.3C401 418.4 423.8 414.9 446.3 409.8C447.3 413.9 448.2 418 449 422C453.9 443.6 454.7 466.1 451.5 488.3zM469.7 380.8C466.9 381.7 464.1 382.6 461.2 383.4C454.2 361.6 445.6 340.3 435.7 319.6C445.3 299.2 453.4 278.2 460.2 256.7C465.4 258.2 470.4 259.8 475.2 261.4C521.8 277.4 554.5 301.2 554.5 319.4C554.5 339 519.6 364.3 469.7 380.8zM320 365.8C345.3 365.8 365.8 345.3 365.8 320C365.8 294.7 345.3 274.2 320 274.2C294.7 274.2 274.2 294.7 274.2 320C274.2 345.3 294.7 365.8 320 365.8z"/></symbol>
<!-- Vue -->
<symbol id="icon-vue" viewBox="0 0 640 640"><!--!Font Awesome Free v7.1.0 by @fontawesome - https://fontawesome.com License - https://fontawesome.com/license/free Copyright 2025 Fonticons, Inc.--><path d="M452.9 128.3L376 128.3L320 216.9L272 128.3L96 128.3L320 512L544 128.3L452.9 128.3zM151.7 160.3L205.5 160.3L320 358.5L434.4 160.3L488.2 160.3L320 448.5L151.7 160.3z"/></symbol>
<!-- Angular -->
<symbol id="icon-angular" viewBox="0 0 640 640"><!--!Font Awesome Free v7.1.0 by @fontawesome - https://fontawesome.com License - https://fontawesome.com/license/free Copyright 2025 Fonticons, Inc.--><path d="M281.7 332.1L357.9 332.1L319.8 240.5L281.7 332.1zM319.8 96L112 170.4L143.8 446.1L319.8 544L495.8 446.1L527.6 170.4L319.8 96zM450 437.8L401.4 437.8L375.2 372.4L264.6 372.4L238.4 437.8L189.7 437.8L319.8 145.5L450 437.8z"/></symbol>
<!-- Bootstrap -->
<symbol id="icon-bootstrap" viewBox="0 0 640 640"><!--!Font Awesome Free v7.1.0 by @fontawesome - https://fontawesome.com License - https://fontawesome.com/license/free Copyright 2025 Fonticons, Inc.--><path d="M365.5 265.4C365.5 243.3 349.9 231.1 322.5 231.1L272.1 231.1L272.1 302.3L314.6 302.3C347.4 302.2 365.5 289 365.5 265.4zM549 252.6C539.5 221.7 538.1 183.8 539.2 154.5C540.3 124 516.5 96 484.5 96L155.7 96C123.6 96 99.9 124.1 101 154.5C102 183.8 100.7 221.7 91.2 252.6C81.6 283.6 65.5 303.2 39 305.7L39 334.2C65.4 336.7 81.6 356.3 91.2 387.3C100.7 418.2 102.1 456.1 101 485.4C99.9 515.9 123.7 543.9 155.7 543.9L484.4 543.9C516.5 543.9 540.2 515.8 539.1 485.4C538.1 456.1 539.4 418.2 548.9 387.3C558.5 356.3 574.6 336.7 601 334.2L601 305.7C574.7 303.2 558.5 283.6 549 252.6zM332.2 439.1L234.3 439.1L234.3 200.8L331.7 200.8C375 200.8 403.4 224.2 403.4 260.2C403.4 285.5 384.3 308.1 359.9 312L359.9 313.3C393.1 316.9 415.4 339.9 415.4 371.6C415.4 413.7 384.1 439.1 332.2 439.1zM322.2 330.4L272.1 330.4L272.1 408.8L324.4 408.8C358.6 408.8 376.7 395.1 376.7 369.3C376.7 343.6 358.1 330.4 322.2 330.4z"/></symbol>
<!-- Tailwind -->
<symbol id="icon-tailwind" viewBox="0 0 24 24"><path d="M11.9996 4.85999C8.82628 4.85999 6.84294 6.44665 6.04961 9.61999C7.23961 8.03332 8.62794 7.43832 10.2146 7.83499C11.12 8.06109 11.7666 8.71757 12.4835 9.44545C13.6507 10.6295 15.0004 12 17.9496 12C21.1229 12 23.1063 10.4133 23.8996 7.23998C22.7096 8.82665 21.3213 9.42165 19.7346 9.02499C18.8292 8.79889 18.1827 8.1424 17.4657 7.41452C16.2995 6.23047 14.9498 4.85999 11.9996 4.85999ZM6.04961 12C2.87628 12 0.892943 13.5867 0.0996094 16.76C1.28961 15.1733 2.67794 14.5783 4.26461 14.975C5.17 15.2011 5.81657 15.8576 6.53354 16.5855C7.70073 17.7695 9.05039 19.14 11.9996 19.14C15.1729 19.14 17.1563 17.5533 17.9496 14.38C16.7596 15.9667 15.3713 16.5617 13.7846 16.165C12.8792 15.9389 12.2326 15.2824 11.5157 14.5545C10.3495 13.3705 8.99982 12 6.04961 12Z"></path></symbol>
<!-- Git -->
<symbol id="icon-git" viewBox="0 0 640 640"><!--!Font Awesome Free v7.1.0 by @fontawesome - https://fontawesome.com License - https://fontawesome.com/license/free Copyright 2025 Fonticons, Inc.--><path d="M280.3 222.4L201 222.4C161 211.9 70.5 214.6 70.5 297.2C70.5 327.3 85.5 348.4 105.5 358.2C80.4 381.2 68.5 392 68.5 407.4C68.5 418.4 73 428.5 86.4 434.2C72.1 447.6 64 457.3 64 475.6C64 507.7 92 526.4 165.6 526.4C236.4 526.4 277.4 500 277.4 453.2C277.4 394.5 232.2 396.7 125.8 390.2L139.2 368.6C166.5 376.2 257.9 378.6 257.9 300.7C257.9 282 250.2 269 242.9 259.6L280.3 256.8L280.3 222.3zM216.9 464.3C216.9 496.4 112 496.4 112 466.7C112 458.6 117.3 451.7 122.6 445.2C200.3 450.5 216.9 448.6 216.9 464.3zM166.1 329.7C113.3 329.7 115.6 258.5 167.3 258.5C216.8 258.5 218.1 329.7 166.1 329.7zM299.4 430.2L299.4 398.1C326.1 394.4 326.6 396.1 326.6 387.1L326.6 267.6C326.6 259.1 324.5 260.2 299.4 251.3L303.9 218.4L388.1 218.4L388.1 387.1C388.1 393.6 388.5 394.4 394.6 395.2L415.3 398L415.3 430.1L299.4 430.1zM351.9 185.9C328.7 185.9 315.3 172.5 315.3 149.3C315.3 126.1 328.7 113.5 351.9 113.5C375.5 113.5 388.9 126.1 388.9 149.3C388.9 172.5 375.5 185.9 351.9 185.9zM576 414.5C558.5 423 532.9 430.8 509.7 430.8C461.3 430.8 443 411.3 443 365.3L443 258.8C443 253.4 444 254.7 411.3 254.7L411.3 218.5C447.1 214.4 461.3 196.5 465.8 152.2L504.4 152.2C504.4 218 503.1 214 507.7 214L565 214L565 254.6L504.4 254.6L504.4 351.7C504.4 358.6 499.5 403.1 565 378.5L576 414.3z"/></symbol>
<symbol id="icon-git-square" viewBox="0 0 640 640"><!--!Font Awesome Free v7.1.0 by @fontawesome - https://fontawesome.com License - https://fontawesome.com/license/free Copyright 2025 Fonticons, Inc.--><path d="M216.8 399.5C210.9 399.1 204.2 398.7 196.6 398.2C193.3 402.3 190 406.6 190 411.7C190 430.2 255.5 430.2 255.5 410.2C255.5 401.9 248.1 401.5 216.7 399.5L216.8 399.5zM224.6 281.6C192.3 281.6 190.9 326.1 223.9 326.1C256.4 326.1 255.6 281.6 224.6 281.6zM480 96L160 96C124.7 96 96 124.7 96 160L96 480C96 515.3 124.7 544 160 544L480 544C515.3 544 544 515.3 544 480L544 160C544 124.7 515.3 96 480 96zM339.9 236.2C325.4 236.2 317 227.8 317 213.3C317 198.8 325.4 191 339.9 191C354.6 191 363 198.8 363 213.3C363 227.8 354.6 236.2 339.9 236.2zM245.6 259L295.1 259L295.1 280.6L271.7 282.4C276.3 288.2 281.1 296.4 281.1 308.1C281.1 356.8 223.9 355.3 206.9 350.5L198.5 363.9C203.5 364.2 208.3 364.5 212.8 364.7C269.1 367.9 293.3 369.3 293.3 403.2C293.3 432.4 267.6 448.9 223.4 448.9C177.4 448.9 159.9 437.3 159.9 417.2C159.9 405.8 165 399.7 173.9 391.3C165.5 387.8 162.7 381.4 162.7 374.5C162.7 364.9 170.1 358.2 185.7 343.9L185.9 343.7C173.5 337.6 164.1 324.4 164.1 305.6C164.1 254 220.7 252.3 245.7 258.8L245.6 259zM366.5 367.1L379.5 368.9L379.5 389L307.1 389L307.1 368.9C309.8 368.5 312.1 368.2 314 368C323.9 366.8 324.1 366.7 324.1 362L324.1 287.3C324.1 282.9 323.2 282.6 314 279.5C312.1 278.8 309.8 278.1 307.1 277.1L309.9 256.5L362.5 256.5L362.5 362C362.5 366.1 362.7 366.6 366.6 367.1L366.5 367.1zM473.1 356.7L480 379C469.1 384.4 453.1 389.2 438.6 389.2C408.4 389.2 396.9 377 396.9 348.3L396.9 281.7C396.9 280.9 396.9 280.3 396.7 279.9C395.9 278.7 392.5 279.2 377.1 279.2L377.1 256.6C399.4 254.1 408.3 242.9 411.1 215.2L435.3 215.2C435.3 248.5 434.7 253.2 436 253.8C436.3 253.9 436.7 253.8 437.3 253.8L473.1 253.8L473.1 279.2L435.3 279.2L435.3 340.8C435.1 347.1 434.4 371.2 473.2 356.7L473.1 356.7z"/></symbol>
<!-- GitHub -->
<symbol id="icon-github" viewBox="0 0 640 640"><!--!Font Awesome Free v7.1.0 by @fontawesome - https://fontawesome.com License - https://fontawesome.com/license/free Copyright 2025 Fonticons, Inc.--><path d="M237.9 461.4C237.9 463.4 235.6 465 232.7 465C229.4 465.3 227.1 463.7 227.1 461.4C227.1 459.4 229.4 457.8 232.3 457.8C235.3 457.5 237.9 459.1 237.9 461.4zM206.8 456.9C206.1 458.9 208.1 461.2 211.1 461.8C213.7 462.8 216.7 461.8 217.3 459.8C217.9 457.8 216 455.5 213 454.6C210.4 453.9 207.5 454.9 206.8 456.9zM251 455.2C248.1 455.9 246.1 457.8 246.4 460.1C246.7 462.1 249.3 463.4 252.3 462.7C255.2 462 257.2 460.1 256.9 458.1C256.6 456.2 253.9 454.9 251 455.2zM316.8 72C178.1 72 72 177.3 72 316C72 426.9 141.8 521.8 241.5 555.2C254.3 557.5 258.8 549.6 258.8 543.1C258.8 536.9 258.5 502.7 258.5 481.7C258.5 481.7 188.5 496.7 173.8 451.9C173.8 451.9 162.4 422.8 146 415.3C146 415.3 123.1 399.6 147.6 399.9C147.6 399.9 172.5 401.9 186.2 425.7C208.1 464.3 244.8 453.2 259.1 446.6C261.4 430.6 267.9 419.5 275.1 412.9C219.2 406.7 162.8 398.6 162.8 302.4C162.8 274.9 170.4 261.1 186.4 243.5C183.8 237 175.3 210.2 189 175.6C209.9 169.1 258 202.6 258 202.6C278 197 299.5 194.1 320.8 194.1C342.1 194.1 363.6 197 383.6 202.6C383.6 202.6 431.7 169 452.6 175.6C466.3 210.3 457.8 237 455.2 243.5C471.2 261.2 481 275 481 302.4C481 398.9 422.1 406.6 366.2 412.9C375.4 420.8 383.2 435.8 383.2 459.3C383.2 493 382.9 534.7 382.9 542.9C382.9 549.4 387.5 557.3 400.2 555C500.2 521.8 568 426.9 568 316C568 177.3 455.5 72 316.8 72zM169.2 416.9C167.9 417.9 168.2 420.2 169.9 422.1C171.5 423.7 173.8 424.4 175.1 423.1C176.4 422.1 176.1 419.8 174.4 417.9C172.8 416.3 170.5 415.6 169.2 416.9zM158.4 408.8C157.7 410.1 158.7 411.7 160.7 412.7C162.3 413.7 164.3 413.4 165 412C165.7 410.7 164.7 409.1 162.7 408.1C160.7 407.5 159.1 407.8 158.4 408.8zM190.8 444.4C189.2 445.7 189.8 448.7 192.1 450.6C194.4 452.9 197.3 453.2 198.6 451.6C199.9 450.3 199.3 447.3 197.3 445.4C195.1 443.1 192.1 442.8 190.8 444.4zM179.4 429.7C177.8 430.7 177.8 433.3 179.4 435.6C181 437.9 183.7 438.9 185 437.9C186.6 436.6 186.6 434 185 431.7C183.6 429.4 181 428.4 179.4 429.7z"/></symbol>
<symbol id="icon-github-square" viewBox="0 0 640 640"><!--!Font Awesome Free v7.1.0 by @fontawesome - https://fontawesome.com License - https://fontawesome.com/license/free Copyright 2025 Fonticons, Inc.--><path d="M544 160C544 124.7 515.3 96 480 96L160 96C124.7 96 96 124.7 96 160L96 480C96 515.3 124.7 544 160 544L480 544C515.3 544 544 515.3 544 480L544 160zM361.8 471.7C361.8 469.9 361.8 465.7 361.9 460.1C362 448.7 362 431.3 362 416.4C362 400.8 356.8 390.9 350.7 385.7C387.7 381.6 426.7 376.5 426.7 312.6C426.7 294.4 420.2 285.3 409.6 273.6C411.3 269.3 417 251.6 407.9 228.6C394 224.3 362.2 246.5 362.2 246.5C335.6 239 305.6 239 279 246.5C279 246.5 247.2 224.3 233.3 228.6C224.2 251.5 229.8 269.2 231.6 273.6C221 285.3 216 294.4 216 312.6C216 376.2 253.3 381.6 290.3 385.7C285.5 390 281.2 397.4 279.7 408C270.2 412.3 245.9 419.7 231.4 394.1C222.3 378.3 205.9 377 205.9 377C189.7 376.8 204.8 387.2 204.8 387.2C215.6 392.2 223.2 411.4 223.2 411.4C232.9 441.1 279.3 431.1 279.3 431.1C279.3 440.1 279.4 452.8 279.4 461.7C279.4 466.5 279.5 470.3 279.5 471.7C279.5 476 276.5 481.2 268 479.7C202 457.6 155.8 394.8 155.8 321.4C155.8 229.6 226 159.9 317.8 159.9C409.6 159.9 484 229.6 484 321.4C484.1 394.8 439.3 457.7 373.3 479.7C364.9 481.2 361.8 476 361.8 471.7zM271.3 416.9C271.1 415.4 272.4 414.1 274.3 413.7C276.2 413.5 278 414.3 278.2 415.6C278.5 416.9 277.2 418.2 275.2 418.6C273.3 419 271.5 418.2 271.3 416.9zM262.2 420.1C260 420.3 258.5 419.2 258.5 417.7C258.5 416.4 260 415.3 262 415.3C263.9 415.1 265.7 416.2 265.7 417.7C265.7 419 264.2 420.1 262.2 420.1zM247.9 417.9C246 417.5 244.7 416 245.1 414.7C245.5 413.4 247.5 412.8 249.2 413.2C251.2 413.8 252.5 415.3 252 416.6C251.6 417.9 249.6 418.5 247.9 417.9zM235.4 410.6C233.9 409.3 233.5 407.4 234.5 406.5C235.4 405.4 237.3 405.6 238.8 407.1C240.1 408.4 240.6 410.4 239.7 411.2C238.8 412.3 236.9 412.1 235.4 410.6zM226.9 400.6C225.8 399.1 225.8 397.4 226.9 396.7C228 395.8 229.7 396.5 230.6 398C231.7 399.5 231.7 401.3 230.6 402.1C229.7 402.7 228 402.1 226.9 400.6zM220.6 391.8C219.5 390.5 219.3 389 220.2 388.3C221.1 387.4 222.6 387.9 223.7 388.9C224.8 390.2 225 391.7 224.1 392.4C223.2 393.3 221.7 392.8 220.6 391.8zM214.6 385.4C213.3 384.8 212.7 383.7 213.1 382.8C213.5 382.2 214.6 381.9 215.9 382.4C217.2 383.1 217.8 384.2 217.4 385C217 385.9 215.7 386.1 214.6 385.4z"/></symbol>
<!-- Node.js -->
<symbol id="icon-nodejs" viewBox="0 0 640 640"><!--!Font Awesome Free v7.1.0 by @fontawesome - https://fontawesome.com License - https://fontawesome.com/license/free Copyright 2025 Fonticons, Inc.--><path d="M320.5 572C313.8 572 307 570.2 301.1 566.8L239.4 530.3C230.2 525.1 234.7 523.3 237.7 522.3C250 518 252.5 517.1 265.6 509.6C267 508.8 268.8 509.1 270.2 510L317.6 538.1C319.3 539.1 321.7 539.1 323.3 538.1L508 431.5C509.7 430.5 510.8 428.5 510.8 426.5L510.8 213.3C510.8 211.2 509.7 209.3 507.9 208.2L323.3 101.7C321.6 100.7 319.3 100.7 317.6 101.7L133.1 208.3C131.3 209.3 130.2 211.3 130.2 213.4L130.2 426.5C130.2 428.5 131.3 430.5 133.1 431.4L183.7 460.6C211.2 474.3 228 458.2 228 441.9L228 231.5C228 228.5 230.4 226.2 233.4 226.2L256.8 226.2C259.7 226.2 262.2 228.5 262.2 231.5L262.2 442C262.2 478.6 242.2 499.6 207.5 499.6C196.8 499.6 188.4 499.6 165 488L116.6 460.1C104.6 453.2 97.2 440.3 97.2 426.4L97.2 213.3C97.2 199.5 104.6 186.5 116.6 179.6L301.1 73C312.8 66.4 328.3 66.4 339.9 73L524.6 179.7C536.6 186.6 544 199.5 544 213.4L544 426.5C544 440.3 536.6 453.2 524.6 460.2L339.9 566.8C334 570.2 327.3 572 320.5 572zM469.6 361.9C469.6 322 442.6 311.4 385.9 303.9C328.5 296.3 322.7 292.4 322.7 279C322.7 267.9 327.6 253.1 370.1 253.1C408 253.1 422 261.3 427.8 286.9C428.3 289.3 430.5 291.1 433 291.1L457 291.1C458.5 291.1 459.9 290.5 460.9 289.4C461.9 288.3 462.4 286.8 462.3 285.3C458.6 241.2 429.3 220.7 370.1 220.7C317.4 220.7 286 242.9 286 280.2C286 320.6 317.3 331.8 367.8 336.8C428.3 342.7 433 351.6 433 363.5C433 384.1 416.4 392.9 377.5 392.9C328.6 392.9 317.9 380.6 314.3 356.3C313.9 353.7 311.7 351.8 309 351.8L285.1 351.8C282.1 351.8 279.8 354.2 279.8 357.1C279.8 388.2 296.7 425.3 377.6 425.3C436 425.2 469.6 402.1 469.6 361.9z"/></symbol>
<symbol id="icon-nodejs-2" viewBox="0 0 640 640"><!--!Font Awesome Free v7.1.0 by @fontawesome - https://fontawesome.com License - https://fontawesome.com/license/free Copyright 2025 Fonticons, Inc.--><path d="M316.3 516C314.2 516 312.1 515.4 310.2 514.4L291 503C288.1 501.4 289.5 500.8 290.5 500.5C294.3 499.2 295.1 498.9 299.2 496.5C299.6 496.3 300.2 496.4 300.6 496.6L315.4 505.4C315.9 505.7 316.7 505.7 317.2 505.4L375 472C375.5 471.7 375.9 471.1 375.9 470.4L375.9 403.7C375.9 403 375.6 402.4 375 402.1L317.2 368.8C316.7 368.5 316 368.5 315.4 368.8L257.6 402.1C257 402.4 256.7 403.1 256.7 403.7L256.7 470.4C256.7 471 257.1 471.6 257.6 471.9L273.4 481C282 485.3 287.3 480.2 287.3 475.2L287.3 409.3C287.3 408.4 288 407.6 289 407.6L296.3 407.6C297.2 407.6 298 408.3 298 409.3L298 475.2C298 486.7 291.8 493.2 280.9 493.2C277.6 493.2 274.9 493.2 267.6 489.6L252.4 480.9C248.7 478.7 246.3 474.7 246.3 470.4L246.3 403.7C246.3 399.4 248.6 395.3 252.4 393.2L310.2 359.8C313.9 357.7 318.7 357.7 322.3 359.8L380.1 393.2C383.8 395.4 386.2 399.4 386.2 403.7L386.2 470.4C386.2 474.7 383.9 478.8 380.1 480.9L322.3 514.3C320.6 515.4 318.5 516 316.3 516zM363 450.2C363 437.7 354.6 434.4 336.8 432C318.8 429.6 317 428.4 317 424.2C317 420.7 318.5 416.1 331.8 416.1C343.7 416.1 348.1 418.7 349.9 426.7C350.1 427.5 350.7 428 351.5 428L359 428C359.5 428 359.9 427.8 360.2 427.5C360.5 427.1 360.7 426.7 360.6 426.2C359.4 412.4 350.3 406 331.8 406C315.3 406 305.5 413 305.5 424.6C305.5 437.3 315.3 440.7 331.1 442.3C350 444.2 351.5 446.9 351.5 450.6C351.5 457.1 346.3 459.8 334.1 459.8C318.8 459.8 315.4 456 314.3 448.4C314.2 447.6 313.5 447 312.6 447L305.1 447C304.2 447 303.4 447.7 303.4 448.7C303.4 458.4 308.7 470 334 470C352.5 470 363 462.8 363 450.2zM417.5 400.1C417.5 406.2 412.5 411.2 406.4 411.2C400.3 411.2 395.3 406.2 395.3 400.1C395.3 393.8 400.5 389 406.4 389C412.4 388.9 417.5 393.8 417.5 400.1zM415.7 400.1C415.7 394.9 411.5 390.8 406.3 390.8C401.2 390.8 397 394.9 397 400.1C397 405.3 401.2 409.5 406.3 409.5C411.5 409.4 415.7 405.2 415.7 400.1zM411.2 406.3L408.6 406.3C408.5 405.7 408.1 402.5 408.1 402.4C407.9 401.7 407.7 401.3 406.8 401.3L404.6 401.3L404.6 406.3L402.2 406.3L402.2 393.8L406.5 393.8C408 393.8 410.9 393.8 410.9 397.1C410.9 399.4 409.4 399.9 408.5 400.2C410.2 400.3 410.3 401.4 410.6 403C410.7 404 410.9 405.7 411.2 406.3zM408.4 397.5C408.4 395.8 407.2 395.8 406.6 395.8L404.6 395.8L404.6 399.3L406.5 399.3C408.1 399.3 408.4 398.2 408.4 397.5zM137.3 255C137.3 252.3 135.9 249.9 133.6 248.6L72.3 213.3C71.3 212.7 70.1 212.4 68.9 212.3L68.3 212.3C67.1 212.3 66 212.7 64.9 213.3L3.7 248.6C1.4 249.9 0 252.4 0 255L.1 350C.1 351.3 .8 352.5 1.9 353.2C3 353.9 4.4 353.9 5.6 353.2L42 332.3C44.3 330.9 45.7 328.5 45.7 325.9L45.7 281.5C45.7 278.9 47.1 276.4 49.4 275.1L64.9 266.2C66.1 265.5 67.3 265.2 68.6 265.2C69.9 265.2 71.2 265.5 72.3 266.2L87.8 275.1C90.1 276.4 91.5 278.9 91.5 281.5L91.5 325.9C91.5 328.5 92.9 331 95.2 332.3L131.6 353.2C132.7 353.9 134.2 353.9 135.3 353.2C136.4 352.6 137.1 351.3 137.1 350L137.3 255zM472.5 151.3L472.5 327.7C472.5 330.3 471.1 332.8 468.8 334.1L407.5 369.5C405.2 370.8 402.4 370.8 400.1 369.5L338.8 334.1C336.5 332.8 335.1 330.3 335.1 327.7L335.1 256.9C335.1 254.3 336.5 251.8 338.8 250.5L400.1 215.1C402.4 213.8 405.2 213.8 407.5 215.1L422.8 223.9C424.5 224.9 426.7 223.6 426.7 221.7L426.7 127.7C426.7 124.9 429.7 123.1 432.2 124.5L468.7 144.9C471 146.1 472.5 148.6 472.5 151.3zM426.5 280.2C426.5 279.5 426.1 278.9 425.6 278.6L404.6 266.4C404 266.1 403.3 266.1 402.7 266.4L381.7 278.6C381.1 278.9 380.8 279.5 380.8 280.2L380.8 304.5C380.8 305.2 381.2 305.8 381.7 306.1L402.7 318.2C403.3 318.5 404 318.5 404.5 318.2L425.5 306.1C426.1 305.8 426.4 305.2 426.4 304.5L426.4 280.2L426.5 280.2zM636.3 279.5C638.6 278.2 640 275.7 640 273.1L640 256C640 253.4 638.6 250.9 636.3 249.6L575.4 214.2C573.1 212.9 570.3 212.9 568 214.2L506.7 249.6C504.4 250.9 503 253.4 503 256L503 326.8C503 329.5 504.4 331.9 506.7 333.2L567.6 367.9C569.8 369.2 572.6 369.2 574.9 367.9L611.7 347.4C614.2 346 614.2 342.4 611.7 341L550 305.6C548.8 304.9 548.1 303.7 548.1 302.4L548.1 280.2C548.1 278.9 548.8 277.7 550 277L569.2 265.9C570.3 265.2 571.8 265.2 572.9 265.9L592.1 277C593.2 277.7 594 278.9 594 280.2L594 297.6C594 300.4 597.1 302.2 599.6 300.8L636.3 279.5zM559 283C558.6 283.3 558.3 283.7 558.3 284.2L558.3 297.8C558.3 298.3 558.6 298.8 559 299L570.8 305.8C571.2 306.1 571.8 306.1 572.2 305.8L584 299C584.4 298.7 584.7 298.3 584.7 297.8L584.7 284.2C584.7 283.7 584.4 283.2 584 283L572.2 276.2C571.8 275.9 571.2 275.9 570.8 276.2L559 283zM304.8 326.5L304.8 256.1C304.8 253.5 303.2 251 300.9 249.7L239.8 214.5C237.7 213.3 234.8 213.1 232.4 214.5L171.3 249.7C169 251 167.4 253.4 167.4 256.1L167.4 326.5C167.4 329.3 169.3 331.7 171.4 332.9L232.6 368.1C235 369.5 237.8 369.4 240 368.1L301 332.9C302.8 331.9 304.1 330.2 304.6 328.2C304.7 327.7 304.8 327.1 304.8 326.5zM230.5 201.6L229.7 202.1L230.8 202.1L230.5 201.6zM306.7 331.8L306.3 331.1L306.3 332L306.7 331.8z"/></symbol>
<!-- NPM -->
<symbol id="icon-npm" viewBox="0 0 640 640"><!--!Font Awesome Free v7.1.0 by @fontawesome - https://fontawesome.com License - https://fontawesome.com/license/free Copyright 2025 Fonticons, Inc.--><path d="M320 352L288 352L288 288L320 288L320 352zM608 224L608 416L320 416L320 448L192 448L192 416L32 416L32 224L608 224zM192 256L64 256L64 384L128 384L128 288L160 288L160 384L192 384L192 256zM352 256L224 256L224 416L288 416L288 384L352 384L352 256zM576 256L384 256L384 384L448 384L448 288L480 288L480 384L512 384L512 288L544 288L544 384L576 384L576 256z"/></symbol>
<!-- Paython -->
<symbol id="icon-python" viewBox="0 0 640 640"><!--!Font Awesome Free v7.1.0 by @fontawesome - https://fontawesome.com License - https://fontawesome.com/license/free Copyright 2025 Fonticons, Inc.--><path d="M535.8 264.5C528.1 233.6 513.5 210.3 482.4 210.3L442.3 210.3L442.3 257.7C442.3 294.5 411.1 325.5 375.5 325.5L268.7 325.5C239.5 325.5 215.3 350.5 215.3 379.8L215.3 481.6C215.3 510.6 240.5 527.6 268.7 535.9C302.5 545.8 335 547.6 375.5 535.9C402.4 528.1 428.9 512.4 428.9 481.6L428.9 440.9L322.2 440.9L322.2 427.3L482.4 427.3C513.5 427.3 525 405.6 535.8 373.1C547 339.6 546.5 307.4 535.8 264.5zM382.2 508.7C374.6 509.2 367.3 505.5 363.3 499C359.4 492.4 359.4 484.3 363.3 477.7C367.3 471.2 374.6 467.5 382.2 468C389.8 467.5 397.1 471.2 401.1 477.7C405 484.3 405 492.4 401.1 499C397.1 505.5 389.8 509.2 382.2 508.7zM263.8 312.1L370.6 312.1C400.3 312.1 424 287.6 424 257.8L424 155.9C424 126.9 399.6 105.2 370.6 100.3C334.8 94.4 295.9 94.7 263.8 100.4C218.6 108.4 210.4 125.1 210.4 156L210.4 196.7L317.3 196.7L317.3 210.3L170.3 210.3C139.2 210.3 112 229 103.5 264.5C93.7 305.2 93.3 330.6 103.5 373.1C111.1 404.7 129.2 427.3 160.3 427.3L197 427.3L197 378.5C197 343.2 227.5 312.1 263.8 312.1zM257.2 128.7C268.5 128.7 277.6 137.8 277.6 149.1C277.6 160.4 268.5 169.5 257.2 169.5C245.9 169.5 236.8 160.4 236.8 149.1C236.8 137.8 245.9 128.7 257.2 128.7z"/></symbol>
<!-- Wordpress -->
<symbol id="icon-wordpress" viewBox="0 0 640 640"><!--!Font Awesome Free v7.1.0 by @fontawesome - https://fontawesome.com License - https://fontawesome.com/license/free Copyright 2025 Fonticons, Inc.--><path d="M125.7 233.4L227.2 511.4C156.2 477 107.3 404.2 107.3 320C107.3 289.1 113.9 259.9 125.7 233.4zM463.6 309.3C463.6 283 454.2 264.8 446.1 250.6C435.3 233.1 425.2 218.2 425.2 200.7C425.2 181.1 440 162.9 460.9 162.9C461.8 162.9 462.7 163 463.7 163.1C425.8 128.4 375.4 107.2 320 107.2C245.7 107.2 180.3 145.3 142.2 203.1C147.2 203.3 151.9 203.4 155.9 203.4C178.1 203.4 212.6 200.7 212.6 200.7C224.1 200 225.4 216.9 214 218.2C214 218.2 202.5 219.5 189.7 220.2L267.2 450.6L313.8 311L280.7 220.2C269.2 219.5 258.4 218.2 258.4 218.2C246.9 217.5 248.3 200 259.7 200.7C259.7 200.7 294.8 203.4 315.7 203.4C337.9 203.4 372.4 200.7 372.4 200.7C383.9 200 385.2 216.9 373.8 218.2C373.8 218.2 362.3 219.5 349.5 220.2L426.4 448.9L447.6 378C456.6 348.6 463.6 327.5 463.6 309.3zM323.7 338.6L259.9 524.1C279 529.7 299.1 532.8 320 532.8C344.8 532.8 368.5 528.5 390.6 520.7C390 519.8 389.5 518.8 389.1 517.8L323.7 338.6zM506.7 217.9C507.6 224.7 508.1 231.9 508.1 239.8C508.1 261.4 504.1 285.6 491.9 316L426.9 503.9C490.2 467 532.7 398.5 532.7 320C532.7 283 523.3 248.2 506.7 217.9zM72 320C72 183 183 72 320 72C457 72 568 183 568 320C568 457 457 568 320 568C183 568 72 457 72 320zM556.6 320C556.6 189.3 450.7 83.4 320 83.4C189.3 83.4 83.4 189.3 83.4 320C83.4 450.7 189.3 556.6 320 556.6C450.7 556.6 556.6 450.7 556.6 320z"/></symbol>
<symbol id="icon-wordpress-simple" viewBox="0 0 640 640"><!--!Font Awesome Free v7.1.0 by @fontawesome - https://fontawesome.com License - https://fontawesome.com/license/free Copyright 2025 Fonticons, Inc.--><path d="M320 72C183 72 72 183 72 320C72 457 183 568 320 568C457 568 568 457 568 320C568 183 457 72 320 72zM97 320C97 287.7 103.9 257 116.3 229.3L222.7 520.7C148.3 484.5 97 408.2 97 320zM320 543C298.1 543 277 539.8 257 533.9L323.9 339.5L392.4 527.3C392.9 528.4 393.4 529.4 394 530.4C370.9 538.5 346 543 320 543zM350.7 215.5C364.1 214.8 376.2 213.4 376.2 213.4C388.2 212 386.8 194.3 374.8 195C374.8 195 338.7 197.8 315.4 197.8C293.5 197.8 256.7 195 256.7 195C244.7 194.3 243.3 212.7 255.3 213.4C255.3 213.4 266.7 214.8 278.7 215.5L313.4 310.7L264.6 457L183.4 215.5C196.8 214.8 208.9 213.4 208.9 213.4C220.9 212 219.5 194.3 207.5 195C207.5 195 171.4 197.8 148.1 197.8C143.9 197.8 139 197.7 133.7 197.5C173.6 137 242.1 97 320 97C378 97 430.9 119.2 470.6 155.5C469.6 155.4 468.7 155.3 467.7 155.3C445.8 155.3 430.3 174.4 430.3 194.9C430.3 213.3 440.9 228.8 452.2 247.2C460.7 262 470.6 281.1 470.6 308.7C470.6 327.8 463.3 349.9 453.6 380.8L431.4 455.1L350.7 215.5zM432.1 512.7L500.2 315.8C512.9 284 517.2 258.6 517.2 235.9C517.2 227.7 516.7 220.1 515.7 213C533.1 244.8 543 281.2 543 320C543 402.3 498.4 474.1 432.1 512.7z"/></symbol>
<!-- VSCode -->
<symbol id="icon-vscode" viewBox="0 0 24 24" fill="currentColor" stroke="currentColor" stroke-width="2" stroke-linecap="round" stroke-linejoin="round"><path stroke="none" d="M0 0h24v24H0z" fill="none"/><path d="M16 3v18l4 -2.5v-13z" /><path d="M9.165 13.903l-4.165 3.597l-2 -1l4.333 -4.5m1.735 -1.802l6.932 -7.198v5l-4.795 4.141" /><path d="M16 16.5l-11 -10l-2 1l13 13.5" /></symbol>
<!-- Django -->
<symbol id="icon-django" viewBox="0 0 24 24" role="img"><path d="M11.146 0h3.924v18.166c-2.013.382-3.491.535-5.096.535-4.791 0-7.288-2.166-7.288-6.32 0-4.002 2.65-6.6 6.753-6.6.637 0 1.121.05 1.707.203zm0 9.143a3.894 3.894 0 0 0-1.325-.204c-1.988 0-3.134 1.223-3.134 3.365 0 2.09 1.096 3.236 3.109 3.236.433 0 .79-.025 1.35-.102V9.142zM21.314 6.06v9.098c0 3.134-.229 4.638-.917 5.937-.637 1.249-1.478 2.039-3.211 2.905l-3.644-1.733c1.733-.815 2.574-1.53 3.109-2.625.561-1.121.739-2.421.739-5.835V6.059h3.924zM17.39.021h3.924v4.026H17.39z"/></symbol>
<!-- JQuery -->
<symbol id="icon-jquery" viewBox="0 0 32 32" version="1.1"><path d="M18.082 2.72c-0.608 0.9-0.971 2.010-0.971 3.204 0 0.858 0.187 1.673 0.523 2.405l-0.015-0.036c0.88 1.958 2.48 3.461 4.454 4.194l0.054 0.018c0.081 0.031 0.16 0.057 0.245 0.087l0.11 0.034c0.115 0.037 0.231 0.079 0.35 0.105 0.527 0.164 1.132 0.258 1.759 0.258 2.482 0 4.619-1.476 5.58-3.599l0.016-0.039c-0.992 1.246-2.51 2.038-4.212 2.038-0.705 0-1.378-0.136-1.995-0.383l0.036 0.013c-0.262-0.066-0.477-0.134-0.686-0.214l0.042 0.014c-0.317-0.111-0.572-0.218-0.82-0.338l0.047 0.021c-0.517-0.252-0.96-0.527-1.372-0.84l0.020 0.015c-1.755-1.2-2.891-3.191-2.891-5.448 0-0.968 0.209-1.888 0.585-2.716l-0.017 0.041zM11.151 5.126c-0.909 1.403-1.449 3.118-1.449 4.959 0 1.622 0.419 3.146 1.155 4.47l-0.024-0.047c0.278 0.548 0.559 1.011 0.871 1.451l-0.024-0.035c0.293 0.467 0.621 0.872 0.99 1.234l0.001 0.001c0.134 0.152 0.279 0.3 0.43 0.45l0.112 0.112c0.142 0.137 0.29 0.271 0.437 0.406l0.020 0.016q0.253 0.221 0.517 0.427c0.043 0.029 0.079 0.062 0.12 0.091 0.175 0.135 0.352 0.265 0.535 0.395l0.019 0.011c0.077 0.056 0.16 0.107 0.247 0.162 0.035 0.022 0.075 0.052 0.112 0.075 0.132 0.085 0.262 0.165 0.397 0.246 0.021 0.009 0.040 0.020 0.060 0.029 0.112 0.069 0.235 0.135 0.352 0.196 0.041 0.025 0.081 0.044 0.125 0.067 0.082 0.041 0.165 0.085 0.246 0.127l0.040 0.017c0.169 0.084 0.341 0.161 0.51 0.237 0.042 0.017 0.079 0.031 0.115 0.049 0.139 0.060 0.28 0.117 0.42 0.171 0.062 0.021 0.121 0.046 0.18 0.065 0.127 0.047 0.262 0.091 0.387 0.135l0.175 0.056c0.151 0.057 0.339 0.113 0.531 0.157l0.030 0.006c9.91 1.641 12.204-5.992 12.204-5.992-1.738 2.269-4.449 3.718-7.498 3.718-1.009 0-1.981-0.159-2.892-0.452l0.067 0.019q-0.283-0.073-0.561-0.162c-0.060-0.017-0.112-0.036-0.17-0.054-0.13-0.045-0.264-0.087-0.39-0.136l-0.18-0.067c-0.141-0.056-0.284-0.109-0.42-0.169-0.042-0.019-0.081-0.031-0.114-0.050-0.175-0.079-0.351-0.156-0.522-0.24l-0.257-0.134-0.149-0.075q-0.168-0.089-0.331-0.187c-0.031-0.015-0.056-0.030-0.080-0.046l0.003 0.002c-0.132-0.082-0.271-0.162-0.397-0.247-0.042-0.024-0.081-0.052-0.121-0.077l-0.26-0.17c-0.18-0.125-0.356-0.26-0.535-0.391-0.040-0.036-0.079-0.066-0.117-0.099-1.869-1.453-3.279-3.416-4.027-5.68l-0.024-0.084c-0.284-0.835-0.447-1.797-0.447-2.797 0-1.612 0.425-3.125 1.17-4.433l-0.023 0.044zM2.91 8.34c-1.199 1.892-1.91 4.196-1.91 6.666 0 2.266 0.599 4.392 1.647 6.228l-0.033-0.062c0.046 0.099 0.097 0.192 0.147 0.286 0.029 0.065 0.061 0.125 0.096 0.187 0.016 0.034 0.039 0.070 0.059 0.102 0.033 0.065 0.067 0.127 0.101 0.19l0.196 0.332c0.037 0.061 0.071 0.121 0.112 0.182 0.070 0.117 0.15 0.234 0.222 0.351 0.032 0.050 0.062 0.097 0.099 0.146q0.182 0.286 0.387 0.556c0.097 0.134 0.195 0.264 0.3 0.394 0.034 0.047 0.072 0.095 0.107 0.144l0.275 0.336c0.035 0.038 0.069 0.084 0.105 0.124 0.122 0.147 0.252 0.291 0.382 0.437l0.006 0.008c0.162 0.203 0.336 0.383 0.526 0.545l0.005 0.005c0.1 0.104 0.2 0.206 0.306 0.306l0.126 0.121c0.139 0.131 0.279 0.261 0.425 0.386l0.006 0.004 0.071 0.062c0.127 0.111 0.256 0.222 0.387 0.325l0.156 0.131c0.106 0.085 0.217 0.166 0.325 0.25l0.171 0.131c0.116 0.087 0.24 0.174 0.359 0.259 0.044 0.031 0.087 0.062 0.132 0.091l0.037 0.029 0.35 0.231 0.15 0.1c0.185 0.117 0.367 0.23 0.55 0.34 0.051 0.025 0.105 0.055 0.154 0.085 0.135 0.077 0.275 0.156 0.411 0.229 0.075 0.042 0.152 0.079 0.23 0.117 0.094 0.052 0.191 0.104 0.292 0.156 0.027 0.008 0.050 0.018 0.072 0.030l-0.002-0.001c0.041 0.019 0.080 0.039 0.12 0.059 0.15 0.075 0.306 0.147 0.469 0.219 0.039 0.015 0.070 0.029 0.101 0.045l-0.006-0.003c0.18 0.079 0.361 0.154 0.547 0.227 0.043 0.012 0.087 0.034 0.131 0.050 0.169 0.064 0.342 0.129 0.514 0.19l0.062 0.023c0.192 0.065 0.381 0.127 0.575 0.187 0.045 0.012 0.091 0.029 0.139 0.041 0.2 0.060 0.392 0.131 0.592 0.171 12.837 2.339 16.568-7.719 16.568-7.719-3.134 4.081-8.695 5.157-13.963 3.96-0.195-0.045-0.39-0.107-0.587-0.165q-0.357-0.106-0.709-0.227l-0.077-0.030c-0.17-0.057-0.334-0.121-0.5-0.185q-0.068-0.027-0.137-0.050c-0.185-0.075-0.362-0.151-0.541-0.23-0.039-0.012-0.071-0.030-0.11-0.045q-0.227-0.104-0.452-0.212-0.068-0.030-0.132-0.065c-0.117-0.055-0.235-0.119-0.35-0.179q-0.118-0.057-0.234-0.12c-0.142-0.075-0.284-0.156-0.425-0.234-0.042-0.030-0.091-0.055-0.14-0.082q-0.277-0.164-0.549-0.337-0.075-0.046-0.147-0.097-0.199-0.123-0.39-0.259c-0.044-0.029-0.084-0.060-0.129-0.091q-0.187-0.129-0.369-0.265c-0.052-0.042-0.109-0.082-0.165-0.125-0.11-0.087-0.221-0.169-0.331-0.26l-0.147-0.119q-0.213-0.171-0.419-0.35c-0.014-0.014-0.029-0.027-0.045-0.038l-0.001-0.001-0.434-0.395-0.125-0.117c-0.102-0.105-0.207-0.205-0.312-0.307l-0.122-0.125q-0.198-0.197-0.386-0.404l-0.019-0.020c-0.132-0.145-0.262-0.294-0.391-0.444-0.034-0.037-0.066-0.080-0.1-0.121l-0.284-0.346q-0.216-0.278-0.425-0.561c-1.796-2.276-2.881-5.185-2.881-8.348 0-2.053 0.457-4 1.275-5.743l-0.035 0.083z"></path></symbol>
19


<!-- GENERICOS -->
<!-- Flechas -->
<symbol id="icon-arrow-left" viewBox="0 0 640 640"><!--!Font Awesome Free v7.1.0 by @fontawesome - https://fontawesome.com License - https://fontawesome.com/license/free Copyright 2025 Fonticons, Inc.--><path d="M73.4 297.4C60.9 309.9 60.9 330.2 73.4 342.7L233.4 502.7C245.9 515.2 266.2 515.2 278.7 502.7C291.2 490.2 291.2 469.9 278.7 457.4L173.3 352L544 352C561.7 352 576 337.7 576 320C576 302.3 561.7 288 544 288L173.3 288L278.7 182.6C291.2 170.1 291.2 149.8 278.7 137.3C266.2 124.8 245.9 124.8 233.4 137.3L73.4 297.3z"/></symbol>
<symbol id="icon-arrow-right" viewBox="0 0 640 640"><!--!Font Awesome Free v7.1.0 by @fontawesome - https://fontawesome.com License - https://fontawesome.com/license/free Copyright 2025 Fonticons, Inc.--><path d="M566.6 342.6C579.1 330.1 579.1 309.8 566.6 297.3L406.6 137.3C394.1 124.8 373.8 124.8 361.3 137.3C348.8 149.8 348.8 170.1 361.3 182.6L466.7 288L96 288C78.3 288 64 302.3 64 320C64 337.7 78.3 352 96 352L466.7 352L361.3 457.4C348.8 469.9 348.8 490.2 361.3 502.7C373.8 515.2 394.1 515.2 406.6 502.7L566.6 342.7z"/></symbol>
<symbol id="icon-arrow-up" viewBox="0 0 640 640"><!--!Font Awesome Free v7.1.0 by @fontawesome - https://fontawesome.com License - https://fontawesome.com/license/free Copyright 2025 Fonticons, Inc.--><path d="M342.6 81.4C330.1 68.9 309.8 68.9 297.3 81.4L137.3 241.4C124.8 253.9 124.8 274.2 137.3 286.7C149.8 299.2 170.1 299.2 182.6 286.7L288 181.3L288 552C288 569.7 302.3 584 320 584C337.7 584 352 569.7 352 552L352 181.3L457.4 286.7C469.9 299.2 490.2 299.2 502.7 286.7C515.2 274.2 515.2 253.9 502.7 241.4L342.7 81.4z"/></symbol>
<symbol id="icon-arrow-down" viewBox="0 0 640 640"><!--!Font Awesome Free v7.1.0 by @fontawesome - https://fontawesome.com License - https://fontawesome.com/license/free Copyright 2025 Fonticons, Inc.--><path d="M297.4 566.6C309.9 579.1 330.2 579.1 342.7 566.6L502.7 406.6C515.2 394.1 515.2 373.8 502.7 361.3C490.2 348.8 469.9 348.8 457.4 361.3L352 466.7L352 96C352 78.3 337.7 64 320 64C302.3 64 288 78.3 288 96L288 466.7L182.6 361.3C170.1 348.8 149.8 348.8 137.3 361.3C124.8 373.8 124.8 394.1 137.3 406.6L297.3 566.6z"/></symbol>
<!-- Flechas con Crculo -->
<symbol id="icon-arrow-left-circle" viewBox="0 0 640 640"><!--!Font Awesome Free v7.1.0 by @fontawesome - https://fontawesome.com License - https://fontawesome.com/license/free Copyright 2025 Fonticons, Inc.--><path d="M112 320C112 205.1 205.1 112 320 112C434.9 112 528 205.1 528 320C528 434.9 434.9 528 320 528C205.1 528 112 434.9 112 320zM576 320C576 178.6 461.4 64 320 64C178.6 64 64 178.6 64 320C64 461.4 178.6 576 320 576C461.4 576 576 461.4 576 320zM188.7 308.7C182.5 314.9 182.5 325.1 188.7 331.3L292.7 435.3C297.3 439.9 304.2 441.2 310.1 438.8C316 436.4 320 430.5 320 424L320 352L424 352C437.3 352 448 341.3 448 328L448 312C448 298.7 437.3 288 424 288L320 288L320 216C320 209.5 316.1 203.7 310.1 201.2C304.1 198.7 297.2 200.1 292.7 204.7L188.7 308.7z"/></symbol>
<symbol id="icon-arrow-right-circle" viewBox="0 0 640 640"><!--!Font Awesome Free v7.1.0 by @fontawesome - https://fontawesome.com License - https://fontawesome.com/license/free Copyright 2025 Fonticons, Inc.--><path d="M528 320C528 434.9 434.9 528 320 528C205.1 528 112 434.9 112 320C112 205.1 205.1 112 320 112C434.9 112 528 205.1 528 320zM64 320C64 461.4 178.6 576 320 576C461.4 576 576 461.4 576 320C576 178.6 461.4 64 320 64C178.6 64 64 178.6 64 320zM451.3 331.3C457.5 325.1 457.5 314.9 451.3 308.7L347.3 204.7C342.7 200.1 335.8 198.8 329.9 201.2C324 203.6 320 209.5 320 216L320 288L216 288C202.7 288 192 298.7 192 312L192 328C192 341.3 202.7 352 216 352L320 352L320 424C320 430.5 323.9 436.3 329.9 438.8C335.9 441.3 342.8 439.9 347.3 435.3L451.3 331.3z"/></symbol>
<symbol id="icon-arrow-up-circle" viewBox="0 0 640 640"><!--!Font Awesome Free v7.1.0 by @fontawesome - https://fontawesome.com License - https://fontawesome.com/license/free Copyright 2025 Fonticons, Inc.--><path d="M320 112C434.9 112 528 205.1 528 320C528 434.9 434.9 528 320 528C205.1 528 112 434.9 112 320C112 205.1 205.1 112 320 112zM320 576C461.4 576 576 461.4 576 320C576 178.6 461.4 64 320 64C178.6 64 64 178.6 64 320C64 461.4 178.6 576 320 576zM331.3 188.7C325.1 182.5 314.9 182.5 308.7 188.7L204.7 292.7C200.1 297.3 198.8 304.2 201.2 310.1C203.6 316 209.5 320 216 320L288 320L288 424C288 437.3 298.7 448 312 448L328 448C341.3 448 352 437.3 352 424L352 320L424 320C430.5 320 436.3 316.1 438.8 310.1C441.3 304.1 439.9 297.2 435.3 292.7L331.3 188.7z"/></symbol>
<symbol id="icon-arrow-down-circle" viewBox="0 0 640 640"><!--!Font Awesome Free v7.1.0 by @fontawesome - https://fontawesome.com License - https://fontawesome.com/license/free Copyright 2025 Fonticons, Inc.--><path d="M320 528C205.1 528 112 434.9 112 320C112 205.1 205.1 112 320 112C434.9 112 528 205.1 528 320C528 434.9 434.9 528 320 528zM320 64C178.6 64 64 178.6 64 320C64 461.4 178.6 576 320 576C461.4 576 576 461.4 576 320C576 178.6 461.4 64 320 64zM308.7 451.3C314.9 457.5 325.1 457.5 331.3 451.3L435.3 347.3C439.9 342.7 441.2 335.8 438.8 329.9C436.4 324 430.5 320 424 320L352 320L352 216C352 202.7 341.3 192 328 192L312 192C298.7 192 288 202.7 288 216L288 320L216 320C209.5 320 203.7 323.9 201.2 329.9C198.7 335.9 200.1 342.8 204.7 347.3L308.7 451.3z"/></symbol>
<!-- Men -->
<symbol id="icon-menu" viewBox="0 0 640 640"><!--!Font Awesome Free v7.1.0 by @fontawesome - https://fontawesome.com License - https://fontawesome.com/license/free Copyright 2025 Fonticons, Inc.--><path d="M96 160C96 142.3 110.3 128 128 128L512 128C529.7 128 544 142.3 544 160C544 177.7 529.7 192 512 192L128 192C110.3 192 96 177.7 96 160zM96 320C96 302.3 110.3 288 128 288L512 288C529.7 288 544 302.3 544 320C544 337.7 529.7 352 512 352L128 352C110.3 352 96 337.7 96 320zM544 480C544 497.7 529.7 512 512 512L128 512C110.3 512 96 497.7 96 480C96 462.3 110.3 448 128 448L512 448C529.7 448 544 462.3 544 480z"/></symbol>
<!-- Close/X -->
<symbol id="icon-close" viewBox="0 0 640 640"><!--!Font Awesome Free v7.1.0 by @fontawesome - https://fontawesome.com License - https://fontawesome.com/license/free Copyright 2025 Fonticons, Inc.--><path d="M183.1 137.4C170.6 124.9 150.3 124.9 137.8 137.4C125.3 149.9 125.3 170.2 137.8 182.7L275.2 320L137.9 457.4C125.4 469.9 125.4 490.2 137.9 502.7C150.4 515.2 170.7 515.2 183.2 502.7L320.5 365.3L457.9 502.6C470.4 515.1 490.7 515.1 503.2 502.6C515.7 490.1 515.7 469.8 503.2 457.3L365.8 320L503.1 182.6C515.6 170.1 515.6 149.8 503.1 137.3C490.6 124.8 470.3 124.8 457.8 137.3L320.5 274.7L183.1 137.4z"/></symbol>
<symbol id="icon-close-circle" viewBox="0 0 640 640"><!--!Font Awesome Free v7.1.0 by @fontawesome - https://fontawesome.com License - https://fontawesome.com/license/free Copyright 2025 Fonticons, Inc.--><path d="M320 112C434.9 112 528 205.1 528 320C528 434.9 434.9 528 320 528C205.1 528 112 434.9 112 320C112 205.1 205.1 112 320 112zM320 576C461.4 576 576 461.4 576 320C576 178.6 461.4 64 320 64C178.6 64 64 178.6 64 320C64 461.4 178.6 576 320 576zM231 231C221.6 240.4 221.6 255.6 231 264.9L286 319.9L231 374.9C221.6 384.3 221.6 399.5 231 408.8C240.4 418.1 255.6 418.2 264.9 408.8L319.9 353.8L374.9 408.8C384.3 418.2 399.5 418.2 408.8 408.8C418.1 399.4 418.2 384.2 408.8 374.9L353.8 319.9L408.8 264.9C418.2 255.5 418.2 240.3 408.8 231C399.4 221.7 384.2 221.6 374.9 231L319.9 286L264.9 231C255.5 221.6 240.3 221.6 231 231z"/></symbol>
<!-- Check -->
<symbol id="icon-check" viewBox="0 0 640 640"><!--!Font Awesome Free v7.1.0 by @fontawesome - https://fontawesome.com License - https://fontawesome.com/license/free Copyright 2025 Fonticons, Inc.--><path d="M530.8 134.1C545.1 144.5 548.3 164.5 537.9 178.8L281.9 530.8C276.4 538.4 267.9 543.1 258.5 543.9C249.1 544.7 240 541.2 233.4 534.6L105.4 406.6C92.9 394.1 92.9 373.8 105.4 361.3C117.9 348.8 138.2 348.8 150.7 361.3L252.2 462.8L486.2 141.1C496.6 126.8 516.6 123.6 530.9 134z"/></symbol>
<symbol id="icon-check-circle" viewBox="0 0 640 640"><!--!Font Awesome Free v7.1.0 by @fontawesome - https://fontawesome.com License - https://fontawesome.com/license/free Copyright 2025 Fonticons, Inc.--><path d="M320 576C178.6 576 64 461.4 64 320C64 178.6 178.6 64 320 64C461.4 64 576 178.6 576 320C576 461.4 461.4 576 320 576zM320 112C205.1 112 112 205.1 112 320C112 434.9 205.1 528 320 528C434.9 528 528 434.9 528 320C528 205.1 434.9 112 320 112zM390.7 233.9C398.5 223.2 413.5 220.8 424.2 228.6C434.9 236.4 437.3 251.4 429.5 262.1L307.4 430.1C303.3 435.8 296.9 439.4 289.9 439.9C282.9 440.4 276 437.9 271.1 433L215.2 377.1C205.8 367.7 205.8 352.5 215.2 343.2C224.6 333.9 239.8 333.8 249.1 343.2L285.1 379.2L390.7 234z"/></symbol>
<!-- Link/Enlace -->
<symbol id="icon-link" viewBox="0 0 640 640"><!--!Font Awesome Free v7.1.0 by @fontawesome - https://fontawesome.com License - https://fontawesome.com/license/free Copyright 2025 Fonticons, Inc.--><path d="M451.5 160C434.9 160 418.8 164.5 404.7 172.7C388.9 156.7 370.5 143.3 350.2 133.2C378.4 109.2 414.3 96 451.5 96C537.9 96 608 166 608 252.5C608 294 591.5 333.8 562.2 363.1L491.1 434.2C461.8 463.5 422 480 380.5 480C294.1 480 224 410 224 323.5C224 322 224 320.5 224.1 319C224.6 301.3 239.3 287.4 257 287.9C274.7 288.4 288.6 303.1 288.1 320.8C288.1 321.7 288.1 322.6 288.1 323.4C288.1 374.5 329.5 415.9 380.6 415.9C405.1 415.9 428.6 406.2 446 388.8L517.1 317.7C534.4 300.4 544.2 276.8 544.2 252.3C544.2 201.2 502.8 159.8 451.7 159.8zM307.2 237.3C305.3 236.5 303.4 235.4 301.7 234.2C289.1 227.7 274.7 224 259.6 224C235.1 224 211.6 233.7 194.2 251.1L123.1 322.2C105.8 339.5 96 363.1 96 387.6C96 438.7 137.4 480.1 188.5 480.1C205 480.1 221.1 475.7 235.2 467.5C251 483.5 269.4 496.9 289.8 507C261.6 530.9 225.8 544.2 188.5 544.2C102.1 544.2 32 474.2 32 387.7C32 346.2 48.5 306.4 77.8 277.1L148.9 206C178.2 176.7 218 160.2 259.5 160.2C346.1 160.2 416 230.8 416 317.1C416 318.4 416 319.7 416 321C415.6 338.7 400.9 352.6 383.2 352.2C365.5 351.8 351.6 337.1 352 319.4C352 318.6 352 317.9 352 317.1C352 283.4 334 253.8 307.2 237.5z"/></symbol>
<!-- Casita/Home -->
<symbol id="icon-home" viewBox="0 0 640 640"><!--!Font Awesome Free v7.1.0 by @fontawesome - https://fontawesome.com License - https://fontawesome.com/license/free Copyright 2025 Fonticons, Inc.--><path d="M304 70.1C313.1 61.9 326.9 61.9 336 70.1L568 278.1C577.9 286.9 578.7 302.1 569.8 312C560.9 321.9 545.8 322.7 535.9 313.8L527.9 306.6L527.9 511.9C527.9 547.2 499.2 575.9 463.9 575.9L175.9 575.9C140.6 575.9 111.9 547.2 111.9 511.9L111.9 306.6L103.9 313.8C94 322.6 78.9 321.8 70 312C61.1 302.2 62 287 71.8 278.1L304 70.1zM320 120.2L160 263.7L160 512C160 520.8 167.2 528 176 528L224 528L224 424C224 384.2 256.2 352 296 352L344 352C383.8 352 416 384.2 416 424L416 528L464 528C472.8 528 480 520.8 480 512L480 263.7L320 120.3zM272 528L368 528L368 424C368 410.7 357.3 400 344 400L296 400C282.7 400 272 410.7 272 424L272 528z"/></symbol>
<symbol id="icon-home-solid" viewBox="0 0 640 640"><!--!Font Awesome Free v7.1.0 by @fontawesome - https://fontawesome.com License - https://fontawesome.com/license/free Copyright 2025 Fonticons, Inc.--><path d="M341.8 72.6C329.5 61.2 310.5 61.2 298.3 72.6L74.3 280.6C64.7 289.6 61.5 303.5 66.3 315.7C71.1 327.9 82.8 336 96 336L112 336L112 512C112 547.3 140.7 576 176 576L464 576C499.3 576 528 547.3 528 512L528 336L544 336C557.2 336 569 327.9 573.8 315.7C578.6 303.5 575.4 289.5 565.8 280.6L341.8 72.6zM304 384L336 384C362.5 384 384 405.5 384 432L384 528L256 528L256 432C256 405.5 277.5 384 304 384z"/></symbol>
<!-- Lupa/Bsqueda -->
<symbol id="icon-search" viewBox="0 0 640 640"><!--!Font Awesome Free v7.1.0 by @fontawesome - https://fontawesome.com License - https://fontawesome.com/license/free Copyright 2025 Fonticons, Inc.--><path d="M480 272C480 317.9 465.1 360.3 440 394.7L566.6 521.4C579.1 533.9 579.1 554.2 566.6 566.7C554.1 579.2 533.8 579.2 521.3 566.7L394.7 440C360.3 465.1 317.9 480 272 480C157.1 480 64 386.9 64 272C64 157.1 157.1 64 272 64C386.9 64 480 157.1 480 272zM272 416C351.5 416 416 351.5 416 272C416 192.5 351.5 128 272 128C192.5 128 128 192.5 128 272C128 351.5 192.5 416 272 416z"/></symbol>
<!-- Calendario -->
<symbol id="icon-calendar" viewBox="0 0 640 640"><!--!Font Awesome Free v7.1.0 by @fontawesome - https://fontawesome.com License - https://fontawesome.com/license/free Copyright 2025 Fonticons, Inc.--><path d="M216 64C229.3 64 240 74.7 240 88L240 128L400 128L400 88C400 74.7 410.7 64 424 64C437.3 64 448 74.7 448 88L448 128L480 128C515.3 128 544 156.7 544 192L544 480C544 515.3 515.3 544 480 544L160 544C124.7 544 96 515.3 96 480L96 192C96 156.7 124.7 128 160 128L192 128L192 88C192 74.7 202.7 64 216 64zM216 176L160 176C151.2 176 144 183.2 144 192L144 240L496 240L496 192C496 183.2 488.8 176 480 176L216 176zM144 288L144 480C144 488.8 151.2 496 160 496L480 496C488.8 496 496 488.8 496 480L496 288L144 288z"/></symbol>
<!-- Configuracin -->
<symbol id="icon-settings" viewBox="0 0 640 640"><!--!Font Awesome Free v7.1.0 by @fontawesome - https://fontawesome.com License - https://fontawesome.com/license/free Copyright 2025 Fonticons, Inc.--><path d="M259.1 73.5C262.1 58.7 275.2 48 290.4 48L350.2 48C365.4 48 378.5 58.7 381.5 73.5L396 143.5C410.1 149.5 423.3 157.2 435.3 166.3L503.1 143.8C517.5 139 533.3 145 540.9 158.2L570.8 210C578.4 223.2 575.7 239.8 564.3 249.9L511 297.3C511.9 304.7 512.3 312.3 512.3 320C512.3 327.7 511.8 335.3 511 342.7L564.4 390.2C575.8 400.3 578.4 417 570.9 430.1L541 481.9C533.4 495 517.6 501.1 503.2 496.3L435.4 473.8C423.3 482.9 410.1 490.5 396.1 496.6L381.7 566.5C378.6 581.4 365.5 592 350.4 592L290.6 592C275.4 592 262.3 581.3 259.3 566.5L244.9 496.6C230.8 490.6 217.7 482.9 205.6 473.8L137.5 496.3C123.1 501.1 107.3 495.1 99.7 481.9L69.8 430.1C62.2 416.9 64.9 400.3 76.3 390.2L129.7 342.7C128.8 335.3 128.4 327.7 128.4 320C128.4 312.3 128.9 304.7 129.7 297.3L76.3 249.8C64.9 239.7 62.3 223 69.8 209.9L99.7 158.1C107.3 144.9 123.1 138.9 137.5 143.7L205.3 166.2C217.4 157.1 230.6 149.5 244.6 143.4L259.1 73.5zM320.3 400C364.5 399.8 400.2 363.9 400 319.7C399.8 275.5 363.9 239.8 319.7 240C275.5 240.2 239.8 276.1 240 320.3C240.2 364.5 276.1 400.2 320.3 400z"/></symbol>
<!-- Carrito -->
<symbol id="icon-cart" viewBox="0 0 640 640"><!--!Font Awesome Free v7.1.0 by @fontawesome - https://fontawesome.com License - https://fontawesome.com/license/free Copyright 2025 Fonticons, Inc.--><path d="M24 48C10.7 48 0 58.7 0 72C0 85.3 10.7 96 24 96L69.3 96C73.2 96 76.5 98.8 77.2 102.6L129.3 388.9C135.5 423.1 165.3 448 200.1 448L456 448C469.3 448 480 437.3 480 424C480 410.7 469.3 400 456 400L200.1 400C188.5 400 178.6 391.7 176.5 380.3L171.4 352L475 352C505.8 352 532.2 330.1 537.9 299.8L568.9 133.9C572.6 114.2 557.5 96 537.4 96L124.7 96L124.3 94C119.5 67.4 96.3 48 69.2 48L24 48zM208 576C234.5 576 256 554.5 256 528C256 501.5 234.5 480 208 480C181.5 480 160 501.5 160 528C160 554.5 181.5 576 208 576zM432 576C458.5 576 480 554.5 480 528C480 501.5 458.5 480 432 480C405.5 480 384 501.5 384 528C384 554.5 405.5 576 432 576z"/></symbol>
<!-- Usuario -->

20

<!-- BUSINESS -->
<!-- Trabajo en equipo -->
<symbol id="icon-team" viewBox="0 0 640 640"><!--!Font Awesome Free v7.1.0 by @fontawesome - https://fontawesome.com License - https://fontawesome.com/license/free Copyright 2025 Fonticons, Inc.--><path d="M320 64C355.3 64 384 92.7 384 128C384 163.3 355.3 192 320 192C284.7 192 256 163.3 256 128C256 92.7 284.7 64 320 64zM416 376C416 401 403.3 423 384 435.9L384 528C384 554.5 362.5 576 336 576L304 576C277.5 576 256 554.5 256 528L256 435.9C236.7 423 224 401 224 376L224 336C224 283 267 240 320 240C373 240 416 283 416 336L416 376zM160 96C190.9 96 216 121.1 216 152C216 182.9 190.9 208 160 208C129.1 208 104 182.9 104 152C104 121.1 129.1 96 160 96zM176 336L176 368C176 400.5 188.1 430.1 208 452.7L208 528C208 529.2 208 530.5 208.1 531.7C199.6 539.3 188.4 544 176 544L144 544C117.5 544 96 522.5 96 496L96 439.4C76.9 428.4 64 407.7 64 384L64 352C64 299 107 256 160 256C172.7 256 184.8 258.5 195.9 262.9C183.3 284.3 176 309.3 176 336zM432 528L432 452.7C451.9 430.2 464 400.5 464 368L464 336C464 309.3 456.7 284.4 444.1 262.9C455.2 258.4 467.3 256 480 256C533 256 576 299 576 352L576 384C576 407.7 563.1 428.4 544 439.4L544 496C544 522.5 522.5 544 496 544L464 544C451.7 544 440.4 539.4 431.9 531.7C431.9 530.5 432 529.2 432 528zM480 96C510.9 96 536 121.1 536 152C536 182.9 510.9 208 480 208C449.1 208 424 182.9 424 152C424 121.1 449.1 96 480 96z"/></symbol>
<!-- Escudo con tilde -->
<symbol id="icon-shield-check" viewBox="0 0 24 24" fill="none" stroke="currentColor" stroke-width="2" stroke-linecap="round" stroke-linejoin="round"><path d="M20 13c0 5-3.5 7.5-7.66 8.95a1 1 0 0 1-.67-.01C7.5 20.5 4 18 4 13V6a1 1 0 0 1 1-1c2 0 4.5-1.2 6.24-2.72a1.17 1.17 0 0 1 1.52 0C14.51 3.81 17 5 19 5a1 1 0 0 1 1 1z"/><path d="m9 12 2 2 4-4"/></symbol>
<!-- Lmpara/Idea/Innovacin -->
<symbol id="icon-lightbulb" viewBox="0 0 640 640"><!--!Font Awesome Free v7.1.0 by @fontawesome - https://fontawesome.com License - https://fontawesome.com/license/free Copyright 2025 Fonticons, Inc.--><path d="M424.5 355.1C449 329.2 464 294.4 464 256C464 176.5 399.5 112 320 112C240.5 112 176 176.5 176 256C176 294.4 191 329.2 215.5 355.1C236.8 377.5 260.4 409.1 268.8 448L371.2 448C379.6 409 403.2 377.5 424.5 355.1zM459.3 388.1C435.7 413 416 443.4 416 477.7L416 496C416 540.2 380.2 576 336 576L304 576C259.8 576 224 540.2 224 496L224 477.7C224 443.4 204.3 413 180.7 388.1C148 353.7 128 307.2 128 256C128 150 214 64 320 64C426 64 512 150 512 256C512 307.2 492 353.7 459.3 388.1zM272 248C272 261.3 261.3 272 248 272C234.7 272 224 261.3 224 248C224 199.4 263.4 160 312 160C325.3 160 336 170.7 336 184C336 197.3 325.3 208 312 208C289.9 208 272 225.9 272 248z"/></symbol>
<!-- Estrategia -->
<symbol id="icon-chess-horse" viewBox="0 0 640 640"><!--!Font Awesome Free v7.1.0 by @fontawesome - https://fontawesome.com License - https://fontawesome.com/license/free Copyright 2025 Fonticons, Inc.--><path d="M328 32C438.5 32 528 121.5 528 232L528 359.7C528 378.6 521.9 396.8 510.8 411.9L505.7 418.1L469.4 458.8L501.5 499C508.2 507.4 511.9 517.8 511.9 528.6L511.7 533.4C509.3 557.3 489.1 575.9 464.6 575.9L175.4 575.9L170.6 575.7C146.7 573.3 128.1 553.1 128.1 528.6C128.1 517.8 131.8 507.4 138.5 499L176.1 452L176.1 427.7C176.1 403.4 186.2 380.1 203.9 363.5L267.4 304L250 304L249.8 304.2C229.5 324.5 200.2 332.4 172.7 325.3L167.2 323.7C136.3 313.4 114.9 285.7 112.3 253.6L112.1 247.2L112.1 245.8C112.1 226.1 119.2 207 132 192L208.1 103.2L208.1 56.1L208.2 53.6C209.4 41.4 219.6 32 232 32L328 32zM176.7 528L463.3 528L424.9 480L215 480L176.6 528zM256 112C256 117.7 253.9 123.3 250.2 127.6L168.3 223.1C163 229.4 160 237.4 160 245.7L160 247.1L160.4 252.3C162.3 264.2 170.7 274.2 182.3 278.1L186.8 279.2C197.3 281.1 208.1 277.8 215.8 270.2L223 263L226.7 260C230.6 257.4 235.2 256 240 256L328 256C337.8 256 346.7 262 350.3 271.2C353.9 280.4 351.6 290.8 344.4 297.5L236.6 398.5C228.5 406.1 223.9 416.6 223.9 427.7L223.9 432L429.1 432L469.8 386.2L472.1 383.4C477.2 376.6 479.9 368.2 479.9 359.7L480 232C480 148.1 411.9 80 328 80L256 80L256 112zM288 184C274.7 184 264 173.3 264 160C264 146.7 274.7 136 288 136C301.3 136 312 146.7 312 160C312 173.3 301.3 184 288 184z"/></symbol>
<symbol id="icon-chess-horse2" viewBox="0 0 640 640"><!--!Font Awesome Free v7.1.0 by @fontawesome - https://fontawesome.com License - https://fontawesome.com/license/free Copyright 2025 Fonticons, Inc.--><path d="M320 32C426 32 512 118 512 224L512 357.5C512 374.5 505.2 390.7 493.3 402.7L448 448L498.8 498.7C507.3 507.2 512 518.7 512 530.7C512 555.7 491.7 575.9 466.8 576L173.3 576C148.3 576 128.1 555.7 128.1 530.7C128.1 518.7 132.9 507.2 141.3 498.7L192 448L192 413.4C192 394.7 200.2 377 214.3 364.8L304 288L256 288L243.9 300.1C231.2 312.8 213.9 320 195.9 320C158.4 320 128 289.6 128 252.1L128 243.4C128 220.6 136.2 198.5 151.1 181.1L224 96L224 64C224 46.3 238.3 32 256 32L320 32zM288 136C274.7 136 264 146.7 264 160C264 173.3 274.7 184 288 184C301.3 184 312 173.3 312 160C312 146.7 301.3 136 288 136z"/></symbol>
<!-- Maletn/Portafolio -->
<symbol id="icon-brief-case" viewBox="0 0 640 640"><!--!Font Awesome Pro v7.1.0 by @fontawesome - https://fontawesome.com License - https://fontawesome.com/license (Commercial License) Copyright 2025 Fonticons, Inc.--><path d="M264 112L376 112C380.4 112 384 115.6 384 120L384 160L256 160L256 120C256 115.6 259.6 112 264 112zM208 120L208 160L128 160C92.7 160 64 188.7 64 224L64 320L576 320L576 224C576 188.7 547.3 160 512 160L432 160L432 120C432 89.1 406.9 64 376 64L264 64C233.1 64 208 89.1 208 120zM576 368L384 368L384 384C384 401.7 369.7 416 352 416L288 416C270.3 416 256 401.7 256 384L256 368L64 368L64 480C64 515.3 92.7 544 128 544L512 544C547.3 544 576 515.3 576 480L576 368z"/></symbol>
<!-- Pregunta -->
<symbol id="icon-question-circle" viewBox="0 0 640 640"><!--!Font Awesome Free v7.1.0 by @fontawesome - https://fontawesome.com License - https://fontawesome.com/license/free Copyright 2025 Fonticons, Inc.--><path d="M528 320C528 205.1 434.9 112 320 112C205.1 112 112 205.1 112 320C112 434.9 205.1 528 320 528C434.9 528 528 434.9 528 320zM64 320C64 178.6 178.6 64 320 64C461.4 64 576 178.6 576 320C576 461.4 461.4 576 320 576C178.6 576 64 461.4 64 320zM320 240C302.3 240 288 254.3 288 272C288 285.3 277.3 296 264 296C250.7 296 240 285.3 240 272C240 227.8 275.8 192 320 192C364.2 192 400 227.8 400 272C400 319.2 364 339.2 344 346.5L344 350.3C344 363.6 333.3 374.3 320 374.3C306.7 374.3 296 363.6 296 350.3L296 342.2C296 321.7 310.8 307 326.1 302C332.5 299.9 339.3 296.5 344.3 291.7C348.6 287.5 352 281.7 352 272.1C352 254.4 337.7 240.1 320 240.1zM288 432C288 414.3 302.3 400 320 400C337.7 400 352 414.3 352 432C352 449.7 337.7 464 320 464C302.3 464 288 449.7 288 432z"/></symbol>
<!-- Grfico de crecimiento -->
<symbol id="icon-chart-line" viewBox="0 0 640 640"><!--!Font Awesome Free v7.1.0 by @fontawesome - https://fontawesome.com License - https://fontawesome.com/license/free Copyright 2025 Fonticons, Inc.--><path d="M128 128C128 110.3 113.7 96 96 96C78.3 96 64 110.3 64 128L64 464C64 508.2 99.8 544 144 544L544 544C561.7 544 576 529.7 576 512C576 494.3 561.7 480 544 480L144 480C135.2 480 128 472.8 128 464L128 128zM534.6 214.6C547.1 202.1 547.1 181.8 534.6 169.3C522.1 156.8 501.8 156.8 489.3 169.3L384 274.7L326.6 217.4C314.1 204.9 293.8 204.9 281.3 217.4L185.3 313.4C172.8 325.9 172.8 346.2 185.3 358.7C197.8 371.2 218.1 371.2 230.6 358.7L304 285.3L361.4 342.7C373.9 355.2 394.2 355.2 406.7 342.7L534.7 214.7z"/></symbol>
<!-- Telfono -->
<symbol id="icon-phone" viewBox="0 0 640 640"><!--!Font Awesome Pro v7.1.0 by @fontawesome - https://fontawesome.com License - https://fontawesome.com/license (Commercial License) Copyright 2025 Fonticons, Inc.--><path d="M224.2 89C216.3 70.1 195.7 60.1 176.1 65.4L170.6 66.9C106 84.5 50.8 147.1 66.9 223.3C104 398.3 241.7 536 416.7 573.1C493 589.3 555.5 534 573.1 469.4L574.6 463.9C580 444.2 569.9 423.6 551.1 415.8L453.8 375.3C437.3 368.4 418.2 373.2 406.8 387.1L368.2 434.3C297.9 399.4 241.3 341 208.8 269.3L253 233.3C266.9 222 271.6 202.9 264.8 186.3L224.2 89z"/></symbol>
<!-- Imgen -->
<symbol id="icon-image" viewBox="0 0 640 640"><!--!Font Awesome Free v7.1.0 by @fontawesome - https://fontawesome.com License - https://fontawesome.com/license/free Copyright 2025 Fonticons, Inc.--><path d="M160 144C151.2 144 144 151.2 144 160L144 480C144 488.8 151.2 496 160 496L480 496C488.8 496 496 488.8 496 480L496 160C496 151.2 488.8 144 480 144L160 144zM96 160C96 124.7 124.7 96 160 96L480 96C515.3 96 544 124.7 544 160L544 480C544 515.3 515.3 544 480 544L160 544C124.7 544 96 515.3 96 480L96 160zM224 192C241.7 192 256 206.3 256 224C256 241.7 241.7 256 224 256C206.3 256 192 241.7 192 224C192 206.3 206.3 192 224 192zM360 264C368.5 264 376.4 268.5 380.7 275.8L460.7 411.8C465.1 419.2 465.1 428.4 460.8 435.9C456.5 443.4 448.6 448 440 448L200 448C191.1 448 182.8 443 178.7 435.1C174.6 427.2 175.2 417.6 180.3 410.3L236.3 330.3C240.8 323.9 248.1 320.1 256 320.1C263.9 320.1 271.2 323.9 275.7 330.3L292.9 354.9L339.4 275.9C343.7 268.6 351.6 264.1 360.1 264.1z"/></symbol>
<!-- Balanza/Equilibrio -->
<symbol id="icon-balance" viewBox="0 0 640 640"><!--!Font Awesome Free v7.1.0 by @fontawesome - https://fontawesome.com License - https://fontawesome.com/license/free Copyright 2025 Fonticons, Inc.--><path d="M384 96L512 96C529.7 96 544 110.3 544 128C544 145.7 529.7 160 512 160L398.4 160C393.2 185.8 375.5 207.1 352 217.3L352 512L512 512C529.7 512 544 526.3 544 544C544 561.7 529.7 576 512 576L128 576C110.3 576 96 561.7 96 544C96 526.3 110.3 512 128 512L288 512L288 217.3C264.5 207 246.8 185.7 241.6 160L128 160C110.3 160 96 145.7 96 128C96 110.3 110.3 96 128 96L256 96C270.6 76.6 293.8 64 320 64C346.2 64 369.4 76.6 384 96zM439.6 384L584.4 384L512 259.8L439.6 384zM512 480C449.1 480 396.8 446 386 401.1C383.4 390.1 387 378.8 392.7 369L487.9 205.8C492.9 197.2 502.1 192 512 192C521.9 192 531.1 197.3 536.1 205.8L631.3 369C637 378.8 640.6 390.1 638 401.1C627.2 445.9 574.9 480 512 480zM126.8 259.8L54.4 384L199.3 384L126.8 259.8zM.9 401.1C-1.7 390.1 1.9 378.8 7.6 369L102.8 205.8C107.8 197.2 117 192 126.9 192C136.8 192 146 197.3 151 205.8L246.2 369C251.9 378.8 255.5 390.1 252.9 401.1C242.1 445.9 189.8 480 126.9 480C64 480 11.7 446 .9 401.1z"/></symbol>
<!-- Trato Hecho/Dar la mano -->
<symbol id="icon-hand-shake" viewBox="0 0 640 640"><!--!Font Awesome Free v7.1.0 by @fontawesome - https://fontawesome.com License - https://fontawesome.com/license/free Copyright 2025 Fonticons, Inc.--><path d="M598.1 139.4C608.8 131.6 611.2 116.6 603.4 105.9C595.6 95.2 580.6 92.8 569.9 100.6L495.4 154.8L485.5 148.2C465.8 135 442.6 128 418.9 128L359.7 128L359.3 128L215.7 128C189 128 163.2 136.9 142.3 153.1L70.1 100.6C59.4 92.8 44.4 95.2 36.6 105.9C28.8 116.6 31.2 131.6 41.9 139.4L129.9 203.4C139.5 210.3 152.6 209.3 161 201L164.9 197.1C178.4 183.6 196.7 176 215.8 176L262.1 176L170.4 267.7C154.8 283.3 154.8 308.6 170.4 324.3L171.2 325.1C218 372 294 372 340.9 325.1L368 298L465.8 395.8C481.4 411.4 481.4 436.7 465.8 452.4L456 462.2L425 431.2C415.6 421.8 400.4 421.8 391.1 431.2C381.8 440.6 381.7 455.8 391.1 465.1L419.1 493.1C401.6 503.5 381.9 509.8 361.5 511.6L313 463C303.6 453.6 288.4 453.6 279.1 463C269.8 472.4 269.7 487.6 279.1 496.9L294.1 511.9L290.3 511.9C254.2 511.9 219.6 497.6 194.1 472.1L65 343C55.6 333.6 40.4 333.6 31.1 343C21.8 352.4 21.7 367.6 31.1 376.9L160.2 506.1C194.7 540.6 241.5 560 290.3 560L342.1 560L343.1 561L344.1 560L349.8 560C398.6 560 445.4 540.6 479.9 506.1L499.8 486.2C501 485 502.1 483.9 503.2 482.7C503.9 482.2 504.5 481.6 505.1 481L609 377C618.4 367.6 618.4 352.4 609 343.1C599.6 333.8 584.4 333.7 575.1 343.1L521.3 396.9C517.1 384.1 510 372 499.8 361.8L385 247C375.6 237.6 360.4 237.6 351.1 247L307 291.1C280.5 317.6 238.5 319.1 210.3 295.7L309 197C322.4 183.6 340.6 176 359.6 175.9L368.1 175.9L368.3 175.9L419.1 175.9C433.3 175.9 447.2 180.1 459 188L482.7 204C491.1 209.6 502 209.3 510.1 203.4L598.1 139.4z"/></symbol>
<symbol id="icon-hand-shake-solid" viewBox="0 0 640 640"><!--!Font Awesome Free v7.1.0 by @fontawesome - https://fontawesome.com License - https://fontawesome.com/license/free Copyright 2025 Fonticons, Inc.--><path d="M300.9 149.2L184.3 278.8C179.7 283.9 179.9 291.8 184.8 296.7C215.3 327.2 264.8 327.2 295.3 296.7L327.1 264.9C331.3 260.7 336.6 258.4 342 258C348.8 257.4 355.8 259.7 361 264.9L537.6 440L608 384L608 96L496 160L472.2 144.1C456.4 133.6 437.9 128 418.9 128L348.5 128C347.4 128 346.2 128 345.1 128.1C328.2 129 312.3 136.6 300.9 149.2zM148.6 246.7L255.4 128L215.8 128C190.3 128 165.9 138.1 147.9 156.1L144 160L32 96L32 384L188.4 514.3C211.4 533.5 240.4 544 270.3 544L286 544L279 537C269.6 527.6 269.6 512.4 279 503.1C288.4 493.8 303.6 493.7 312.9 503.1L353.9 544.1L362.9 544.1C382 544.1 400.7 539.8 417.7 531.8L391 505C381.6 495.6 381.6 480.4 391 471.1C400.4 461.8 415.6 461.7 424.9 471.1L456.9 503.1L474.4 485.6C483.3 476.7 485.9 463.8 482 452.5L344.1 315.7L329.2 330.6C279.9 379.9 200.1 379.9 150.8 330.6C127.8 307.6 126.9 270.7 148.6 246.6z"/></symbol>
<!-- Objetivo -->
<symbol id="icon-objetive" viewBox="0 0 640 640"><!--!Font Awesome Free v7.1.0 by @fontawesome - https://fontawesome.com License - https://fontawesome.com/license/free Copyright 2025 Fonticons, Inc.--><path d="M512 320C512 214 426 128 320 128C214 128 128 214 128 320C128 426 214 512 320 512C426 512 512 426 512 320zM64 320C64 178.6 178.6 64 320 64C461.4 64 576 178.6 576 320C576 461.4 461.4 576 320 576C178.6 576 64 461.4 64 320zM320 400C364.2 400 400 364.2 400 320C400 275.8 364.2 240 320 240C275.8 240 240 275.8 240 320C240 364.2 275.8 400 320 400zM320 176C399.5 176 464 240.5 464 320C464 399.5 399.5 464 320 464C240.5 464 176 399.5 176 320C176 240.5 240.5 176 320 176zM288 320C288 302.3 302.3 288 320 288C337.7 288 352 302.3 352 320C352 337.7 337.7 352 320 352C302.3 352 288 337.7 288 320z"/></symbol>
<!-- Documento/Reporte -->
<symbol id="icon-document" viewBox="0 0 640 640"><!--!Font Awesome Free v7.1.0 by @fontawesome - https://fontawesome.com License - https://fontawesome.com/license/free Copyright 2025 Fonticons, Inc.--><path d="M304 112L192 112C183.2 112 176 119.2 176 128L176 512C176 520.8 183.2 528 192 528L448 528C456.8 528 464 520.8 464 512L464 272L376 272C336.2 272 304 239.8 304 200L304 112zM444.1 224L352 131.9L352 200C352 213.3 362.7 224 376 224L444.1 224zM128 128C128 92.7 156.7 64 192 64L325.5 64C342.5 64 358.8 70.7 370.8 82.7L493.3 205.3C505.3 217.3 512 233.6 512 250.6L512 512C512 547.3 483.3 576 448 576L192 576C156.7 576 128 547.3 128 512L128 128z"/></symbol>
<!-- Luna -->
<symbol id="icon-moon" viewBox="0 0 640 640"><!--!Font Awesome Free v7.1.0 by @fontawesome - https://fontawesome.com License - https://fontawesome.com/license/free Copyright 2025 Fonticons, Inc.--><path d="M303.3 112.7C196.2 121.2 112 210.8 112 320C112 434.9 205.1 528 320 528C353.3 528 384.7 520.2 412.6 506.3C309.2 482.9 232 390.5 232 280C232 214.2 259.4 154.9 303.3 112.7zM64 320C64 178.6 178.6 64 320 64C339.4 64 358.4 66.2 376.7 70.3C386.6 72.5 394 80.8 395.2 90.8C396.4 100.8 391.2 110.6 382.1 115.2C321.5 145.4 280 207.9 280 280C280 381.6 362.4 464 464 464C469 464 473.9 463.8 478.8 463.4C488.9 462.6 498.4 468.2 502.6 477.5C506.8 486.8 504.6 497.6 497.3 504.6C451.3 548.8 388.8 576 320 576C178.6 576 64 461.4 64 320z"/></symbol>
<symbol id="icon-moon-solid" viewBox="0 0 640 640"><!--!Font Awesome Free v7.1.0 by @fontawesome - https://fontawesome.com License - https://fontawesome.com/license/free Copyright 2025 Fonticons, Inc.--><path d="M320 64C178.6 64 64 178.6 64 320C64 461.4 178.6 576 320 576C388.8 576 451.3 548.8 497.3 504.6C504.6 497.6 506.7 486.7 502.6 477.5C498.5 468.3 488.9 462.6 478.8 463.4C473.9 463.8 469 464 464 464C362.4 464 280 381.6 280 280C280 207.9 321.5 145.4 382.1 115.2C391.2 110.7 396.4 100.9 395.2 90.8C394 80.7 386.6 72.5 376.7 70.3C358.4 66.2 339.4 64 320 64z"/></symbol>
<symbol id="icon-moon-2" viewBox="0 0 24 24" fill="none" stroke="currentColor" stroke-width="2" stroke-linecap="round" stroke-linejoin="round"><path d="M20.985 12.486a9 9 0 1 1-9.473-9.472c.405-.022.617.46.402.803a6 6 0 0 0 8.268 8.268c.344-.215.825-.004.803.401"/></symbol>
<!-- Sol -->
<symbol id="icon-sun" viewBox="0 0 24 24" fill="none" stroke="currentColor" stroke-width="2" stroke-linecap="round" stroke-linejoin="round"><circle cx="12" cy="12" r="4"/><path d="M12 2v2"/><path d="M12 20v2"/><path d="m4.93 4.93 1.41 1.41"/><path d="m17.66 17.66 1.41 1.41"/><path d="M2 12h2"/><path d="M20 12h2"/><path d="m6.34 17.66-1.41 1.41"/><path d="m19.07 4.93-1.41 1.41"/></symbol>
19
</svg>